<svg width="41" height="59" viewBox="0 0 41 59" fill="none" xmlns="http://www.w3.org/2000/svg">
<path d="M40.1236 7.16687L33.21 0.253054C33.048 0.091035 32.8281 0 32.5989 0H1.4873C1.01 0 0.623047 0.386841 0.623047 0.864256V53.1201C0.623047 53.5974 1.01 53.9843 1.4873 53.9843H39.5125C39.9898 53.9843 40.3768 53.5974 40.3768 53.1201V7.77808C40.3768 7.54888 40.2857 7.32912 40.1236 7.16687Z" fill="#E6E9ED"/>
<path d="M16.5852 17.8614C16.5844 17.8614 16.5837 17.8614 16.5829 17.8614H8.40152C8.15734 17.8614 7.92457 17.7582 7.76071 17.577C7.59684 17.396 7.51721 17.1541 7.54153 16.9111L8.23305 9.99705C8.2773 9.55524 8.64904 9.21887 9.09304 9.21887H16.0069C16.4564 9.21887 16.8308 9.56342 16.8681 10.0113L17.4389 16.8611C17.4459 16.9055 17.4495 16.9509 17.4495 16.9972C17.4495 17.4745 17.0625 17.8614 16.5852 17.8614Z" fill="#ED5565"/>
<path d="M12.55 5.76172C11.1203 5.76172 9.95728 6.92478 9.95728 8.35449V10.0831C9.95728 10.5604 10.3442 10.9474 10.8215 10.9474C11.2988 10.9474 11.6858 10.5604 11.6858 10.0831V8.35449C11.6858 7.87788 12.0734 7.49023 12.55 7.49023C13.0266 7.49023 13.4143 7.87788 13.4143 8.35449V10.0831C13.4143 10.5604 13.8013 10.9474 14.2786 10.9474C14.7559 10.9474 15.1428 10.5604 15.1428 10.0831V8.35449C15.1428 6.92478 13.9797 5.76172 12.55 5.76172Z" fill="#515760"/>
<path d="M33.21 0.253058C33.1181 0.161216 33.0073 0.0929975 32.8871 0.0504761V6.62562C32.8871 7.10292 33.274 7.48988 33.7513 7.48988H40.3263C40.2836 7.36969 40.2155 7.25883 40.1237 7.16688L33.21 0.253058Z" fill="#F5F7FA"/>
<path d="M32.5989 26.3302H8.40112C7.92382 26.3302 7.53687 25.9432 7.53687 25.4659C7.53687 24.9885 7.92382 24.6017 8.40112 24.6017H32.5989C33.0762 24.6017 33.4632 24.9885 33.4632 25.4659C33.4632 25.9432 33.0762 26.3302 32.5989 26.3302Z" fill="#656D78"/>
<path d="M32.5989 30.9406H8.40112C7.92382 30.9406 7.53687 30.5536 7.53687 30.0764C7.53687 29.5989 7.92382 29.2121 8.40112 29.2121H32.5989C33.0762 29.2121 33.4632 29.5989 33.4632 30.0764C33.4632 30.5536 33.0762 30.9406 32.5989 30.9406Z" fill="#656D78"/>
<path d="M32.5989 35.5499H8.40112C7.92382 35.5499 7.53687 35.1629 7.53687 34.6856C7.53687 34.2082 7.92382 33.8214 8.40112 33.8214H32.5989C33.0762 33.8214 33.4632 34.2082 33.4632 34.6856C33.4632 35.1629 33.0762 35.5499 32.5989 35.5499Z" fill="#656D78"/>
<path d="M18.7715 40.1592H8.40112C7.92382 40.1592 7.53687 39.7723 7.53687 39.295C7.53687 38.8176 7.92382 38.4307 8.40112 38.4307H18.7715C19.2488 38.4307 19.6358 38.8176 19.6358 39.295C19.6358 39.7723 19.2488 40.1592 18.7715 40.1592Z" fill="#656D78"/>
<path d="M36.8691 7.49023C36.9015 7.58196 36.9196 7.67899 36.9196 7.77809V53.1201C36.9196 53.5974 36.5326 53.9844 36.0553 53.9844H39.5127C39.99 53.9844 40.3769 53.5974 40.3769 53.1201V7.77809C40.3769 7.67899 40.3589 7.58196 40.3264 7.49023H36.8691Z" fill="#DADDE1"/>
<path d="M27.4148 52.8351C24.0789 52.8351 21.365 50.1211 21.365 46.7853C21.365 43.4494 24.0789 40.7355 27.4148 40.7355C30.7507 40.7355 33.4646 43.4494 33.4646 46.7853C33.4646 50.1211 30.7507 52.8351 27.4148 52.8351Z" fill="#ED5565"/>
<path d="M27.4148 52.8351C26.0015 52.8351 24.7009 52.3466 23.6699 51.5313V58.1356C23.6699 58.1448 23.671 58.1537 23.6713 58.1628C23.6719 58.1804 23.6723 58.1981 23.674 58.2156C23.6751 58.2279 23.6771 58.2401 23.6787 58.2522C23.6808 58.2681 23.6829 58.2838 23.6859 58.2995C23.6885 58.3126 23.6918 58.3255 23.6949 58.3384C23.6984 58.3528 23.7017 58.3671 23.706 58.3814C23.71 58.3949 23.7147 58.4081 23.7195 58.4215C23.7241 58.4346 23.7286 58.4479 23.7339 58.4609C23.7395 58.4747 23.7459 58.488 23.7522 58.5016C23.7578 58.5136 23.7633 58.5257 23.7695 58.5376C23.777 58.5516 23.7852 58.5652 23.7933 58.5788C23.7997 58.5895 23.8058 58.6002 23.8126 58.6105C23.8221 58.625 23.8326 58.6388 23.843 58.6528C23.8486 58.6602 23.8535 58.6681 23.8594 58.6755C23.8605 58.677 23.8619 58.678 23.8631 58.6795C23.8824 58.7035 23.9029 58.7264 23.9247 58.7482C23.9308 58.7543 23.9375 58.7596 23.9438 58.7655C23.9596 58.7804 23.9758 58.7949 23.9927 58.8085C24.0028 58.8166 24.0133 58.8241 24.0238 58.8317C24.038 58.8421 24.0522 58.8523 24.0668 58.8617C24.0779 58.869 24.089 58.8755 24.1004 58.8822C24.1158 58.8911 24.1314 58.8995 24.1473 58.9076C24.1582 58.913 24.169 58.9184 24.1802 58.9234C24.1978 58.9313 24.2159 58.9385 24.2341 58.9451C24.244 58.9488 24.2538 58.9527 24.2638 58.9561C24.2842 58.9629 24.3052 58.9683 24.3263 58.9736C24.3347 58.9757 24.343 58.9782 24.3514 58.9801C24.3747 58.9851 24.3984 58.9887 24.4224 58.9918C24.4291 58.9927 24.4357 58.9942 24.4423 58.9948C24.4706 58.9978 24.4993 58.9993 24.5283 58.9995C24.5305 58.9995 24.5327 58.9999 24.5349 58.9999C24.5358 58.9999 24.5366 58.9996 24.5375 58.9996C24.5797 58.9995 24.6208 58.9955 24.6613 58.9895C24.67 58.9881 24.6786 58.9871 24.6873 58.9855C24.7285 58.9782 24.7684 58.9682 24.8073 58.9552C24.8144 58.9527 24.8213 58.95 24.8284 58.9474C24.8697 58.9325 24.9101 58.9153 24.9483 58.8943C24.9497 58.8935 24.951 58.8926 24.9524 58.8919C24.9927 58.8697 25.0306 58.844 25.0666 58.8157C25.0691 58.8138 25.0719 58.8125 25.0744 58.8105L27.4153 56.9378L29.756 58.8105C29.7586 58.8125 29.7612 58.8137 29.7637 58.8156C29.7998 58.8438 29.8377 58.8697 29.878 58.892C29.8794 58.8927 29.8807 58.8936 29.8821 58.8944C29.9202 58.9154 29.9607 58.9326 30.002 58.9476C30.0091 58.9501 30.016 58.953 30.023 58.9553C30.0618 58.9681 30.102 58.9782 30.143 58.9856C30.1516 58.9872 30.1603 58.9882 30.169 58.9896C30.2095 58.9956 30.2505 58.9996 30.2927 58.9998C30.2936 58.9998 30.2945 59 30.2954 59C30.2974 59 30.2993 58.9998 30.3013 58.9996C30.3306 58.9995 30.3595 58.9979 30.3881 58.9949C30.3944 58.9942 30.4006 58.9928 30.4071 58.9922C30.4313 58.989 30.4555 58.9852 30.479 58.9802C30.4872 58.9783 30.4951 58.9759 30.5032 58.9738C30.5246 58.9685 30.5459 58.9629 30.5667 58.9561C30.5764 58.953 30.5859 58.9491 30.5955 58.9455C30.6142 58.9386 30.6325 58.9314 30.6505 58.9234C30.6613 58.9185 30.672 58.9132 30.6826 58.9079C30.6987 58.8998 30.7147 58.8912 30.7302 58.8821C30.7414 58.8756 30.7524 58.8691 30.7635 58.8619C30.7783 58.8524 30.7927 58.8422 30.8068 58.8317C30.8172 58.8241 30.8277 58.8168 30.8377 58.8087C30.8547 58.795 30.8709 58.7804 30.8868 58.7654C30.893 58.7595 30.8995 58.7543 30.9056 58.7483C30.9274 58.7267 30.948 58.7036 30.9674 58.6796C30.9685 58.6781 30.9699 58.6771 30.971 58.6756C30.9769 58.6683 30.9816 58.6605 30.9873 58.6531C30.9978 58.6392 31.0083 58.6252 31.0179 58.6106C31.0247 58.6002 31.0307 58.5895 31.0372 58.579C31.0454 58.5653 31.0537 58.5517 31.0612 58.5376C31.0674 58.5258 31.0728 58.5138 31.0783 58.5018C31.0847 58.4883 31.091 58.475 31.0967 58.461C31.102 58.448 31.1064 58.4348 31.1111 58.4216C31.1158 58.4084 31.1205 58.3951 31.1245 58.3815C31.1288 58.3672 31.1321 58.3528 31.1356 58.3384C31.1387 58.3256 31.1421 58.3127 31.1446 58.2996C31.1476 58.2838 31.1497 58.268 31.1518 58.2522C31.1535 58.2401 31.1554 58.228 31.1566 58.2157C31.1582 58.1982 31.1586 58.1804 31.1592 58.1628C31.1596 58.1537 31.1606 58.1448 31.1606 58.1356L31.1604 51.5314C30.1288 52.3466 28.8281 52.8351 27.4148 52.8351Z" fill="#DA4453"/>
<path d="M27.4149 49.378C25.9852 49.378 24.8221 48.2148 24.8221 46.7852C24.8221 45.3555 25.9852 44.1924 27.4149 44.1924C28.8446 44.1924 30.0077 45.3555 30.0077 46.7852C30.0077 48.2148 28.8446 49.378 27.4149 49.378Z" fill="#DA4453"/>
</svg>
