<svg width="45" height="51" viewBox="0 0 45 51" fill="none" xmlns="http://www.w3.org/2000/svg">
<path d="M36.6031 14.7831V41.8719C36.6031 44.1391 34.7651 45.977 32.498 45.977H4.2755C2.00836 45.977 0.17041 44.1391 0.17041 41.8719V4.10509C0.17041 1.83795 2.00836 0 4.2755 0H21.845C22.3116 0 22.7673 0.105911 23.1799 0.304392C23.4903 0.453715 36.1746 13.1748 36.3254 13.5052C36.5066 13.9027 36.6031 14.338 36.6031 14.7831Z" fill="#F9F8F9"/>
<path d="M36.6031 14.7835V16.5887H25.8971C22.6694 16.5887 20.0432 13.9594 20.0432 10.7287V0H21.8453C22.2912 0 22.7272 0.0968801 23.1253 0.279044C23.4566 0.430624 36.1818 13.1849 36.333 13.5218C36.5094 13.9147 36.6031 14.3442 36.6031 14.7835Z" fill="#E3E0E4"/>
<path d="M7.35432 45.977H4.2755C2.00846 45.977 0.17041 44.139 0.17041 41.8719V4.10509C0.17041 1.83805 2.00846 0 4.2755 0H7.35432C5.08728 0 3.24923 1.83805 3.24923 4.10509V41.8719C3.24923 44.139 5.08728 45.977 7.35432 45.977Z" fill="#E3E0E4"/>
<path d="M18.7572 15.394H6.06218C5.6371 15.394 5.29248 15.0494 5.29248 14.6243C5.29248 14.1992 5.6371 13.8546 6.06218 13.8546H18.7572C19.1823 13.8546 19.5269 14.1992 19.5269 14.6243C19.5269 15.0494 19.1823 15.394 18.7572 15.394Z" fill="#A29AA5"/>
<path d="M18.7572 33.8669H6.06218C5.6371 33.8669 5.29248 33.5223 5.29248 33.0972C5.29248 32.6721 5.6371 32.3275 6.06218 32.3275H18.7572C19.1823 32.3275 19.5269 32.6721 19.5269 33.0972C19.5269 33.5223 19.1823 33.8669 18.7572 33.8669Z" fill="#A29AA5"/>
<path d="M28.8454 21.5517H5.85686C5.43178 21.5517 5.08716 21.2071 5.08716 20.782C5.08716 20.3569 5.43178 20.0123 5.85686 20.0123H28.8454C29.2705 20.0123 29.6151 20.3569 29.6151 20.782C29.6151 21.2071 29.2705 21.5517 28.8454 21.5517Z" fill="#A29AA5"/>
<path d="M36.3271 13.5098H25.8971C24.3649 13.5098 23.1221 12.2639 23.1221 10.7286V0.279114C23.4546 0.42895 23.7614 0.640362 24.0242 0.904114L35.7042 12.6088C35.9659 12.8715 36.1773 13.1773 36.3271 13.5098Z" fill="#A29AA5"/>
<path d="M23.714 27.7093H5.85686C5.43178 27.7093 5.08716 27.3648 5.08716 26.9396C5.08716 26.5144 5.43178 26.1699 5.85686 26.1699H23.714C24.1391 26.1699 24.4837 26.5144 24.4837 26.9396C24.4837 27.3648 24.1391 27.7093 23.714 27.7093Z" fill="#A29AA5"/>
<path d="M39.2467 49.6575L32.9729 41.7027L35.5932 39.1523L43.4883 45.4119C45.3021 46.7708 45.1551 48.5563 43.7716 49.9411C42.3881 51.3258 40.6043 51.4731 39.2467 49.6575Z" fill="#FAF063"/>
<path d="M38.6023 41.5384L35.3798 44.7537L32.9731 41.7026L35.5932 39.1523L38.6023 41.5384Z" fill="#F3D332"/>
<path d="M39.2975 36.4949L30.3715 45.4021L22.7092 37.7492L31.6352 28.842L39.2975 36.4949Z" fill="#FAF063"/>
<path d="M30.7226 47.3899L30.722 47.3905C29.9631 48.1479 28.856 48.2715 28.2489 47.6665L20.4374 39.869C19.83 39.2638 19.953 38.1584 20.7124 37.4006L20.713 37.3999C21.4719 36.6425 22.5789 36.519 23.1861 37.124L30.9976 44.9214C31.6051 45.5267 31.4819 46.6321 30.7226 47.3899Z" fill="#F3D332"/>
<path d="M41.2614 36.8409L41.2621 36.8403C42.0187 36.0807 42.1422 34.9726 41.5378 34.3649L33.7478 26.546C33.1431 25.9379 32.0387 26.0612 31.2817 26.8212L31.281 26.8219C30.5244 27.5815 30.4009 28.6896 31.0053 29.2973L38.7953 37.1162C39.4 37.7242 40.5043 37.601 41.2614 36.8409Z" fill="#F3D332"/>
</svg>
