<svg width="58" height="57" viewBox="0 0 58 57" fill="none" xmlns="http://www.w3.org/2000/svg">
<path d="M1.71595 56.9422H9.42789C9.91997 56.9422 10.3189 56.5432 10.3189 56.0512V53.4073L10.9771 52.4617V33.5048L10.3189 32.7581V29.9408C10.3189 29.4487 9.91997 29.0498 9.42789 29.0498H1.71595C1.22386 29.0498 0.824951 29.4487 0.824951 29.9408V56.0513C0.824951 56.5432 1.22386 56.9422 1.71595 56.9422Z" fill="#8AC9FE"/>
<path d="M55.5187 5.98149L43.8365 1.11449C42.7913 0.678796 41.6038 0.678796 40.5586 1.11449L28.8763 5.98149C27.373 6.60811 26.4001 8.03116 26.4001 9.6044V30.5479L26.4041 51.8153V51.8166C26.487 53.9268 28.2958 55.6132 30.5154 55.6132H53.8798C56.1534 55.6132 57.9951 53.8452 57.9951 51.6638V9.60427C57.9949 8.03116 57.0221 6.60811 55.5187 5.98149ZM41.9988 12.8059C40.472 12.8059 39.2344 11.5682 39.2344 10.0415C39.2344 8.51484 40.4721 7.27712 41.9988 7.27712C43.5256 7.27712 44.7632 8.51484 44.7632 10.0415C44.7632 11.5682 43.5256 12.8059 41.9988 12.8059Z" fill="#FEDBA6"/>
<path d="M35.619 51.8163V51.815L35.6185 49.3023C36.3706 48.1655 36.8099 46.8046 36.8099 45.3423C36.8099 44.5748 36.6892 43.835 36.4656 43.1407C37.3598 41.9415 37.8895 40.4554 37.8895 38.8478C37.8895 38.087 37.771 37.3537 37.5512 36.6648C38.4539 35.4622 38.9891 33.9692 38.9891 32.3532C38.9891 29.7889 37.6399 27.5349 35.6151 26.26V9.60416C35.6151 8.03104 36.5879 6.60787 38.0913 5.98124L46.8049 2.35044L43.8363 1.11425C42.791 0.678551 41.6036 0.678551 40.5583 1.11425L28.8761 5.98124C27.3727 6.60787 26.3999 8.03091 26.3999 9.60416V25.1567V30.5476V30.5479L26.4038 51.8153V51.8164V51.8167C26.4867 53.927 28.2956 55.6133 30.5152 55.6133H34.4197C34.4197 55.6132 34.4199 55.6132 34.4199 55.6131H39.7303C37.5107 55.613 35.702 53.9266 35.619 51.8163Z" fill="#FECE85"/>
<path d="M34.6733 49.5895H36.2969C38.0904 49.5895 39.5442 51.0434 39.5442 52.8368C39.5442 54.6302 38.0904 56.0841 36.2969 56.0841H18.8803C18.0032 56.0841 17.1544 55.787 16.4584 55.2533C14.6226 53.8457 12.68 53.5476 10.3188 53.4073V32.7581C15.8718 26.4134 22.9087 25.8174 22.4163 16.3364C22.3311 14.6958 23.6383 13.3184 25.2812 13.3184C26.5378 13.3184 27.6551 14.134 28.0216 15.3358C29.512 20.2209 29.8847 25.0691 27.9173 30.106H39.7926C41.586 30.106 43.0399 31.5598 43.0399 33.3533C43.0399 35.1467 41.586 36.6006 39.7926 36.6006H35.7529H38.693C40.4864 36.6006 41.9402 38.0544 41.9402 39.8479C41.9402 41.6413 40.4864 43.0952 38.693 43.0952H35.7529H37.6134C39.4069 43.0952 40.8607 44.549 40.8607 46.3425C40.8607 48.1359 39.4069 49.5898 37.6134 49.5898H34.6733V49.5895Z" fill="#FFF3DE"/>
<path d="M34.6733 49.5895H36.2969C38.0904 49.5895 39.5442 51.0434 39.5442 52.8368C39.5442 54.6302 38.0904 56.0841 36.2969 56.0841H18.8803C18.0032 56.0841 17.1544 55.787 16.4584 55.2533C14.6226 53.8457 12.68 53.5476 10.3188 53.4073V32.7581C15.8718 26.4134 22.9087 25.8174 22.4163 16.3364C22.3311 14.6958 23.6383 13.3184 25.2812 13.3184C26.5378 13.3184 27.6551 14.134 28.0216 15.3358C29.512 20.2209 29.8847 25.0691 27.9173 30.106H39.7926C41.586 30.106 43.0399 31.5598 43.0399 33.3533C43.0399 35.1467 41.586 36.6006 39.7926 36.6006H35.7529H38.693C40.4864 36.6006 41.9402 38.0544 41.9402 39.8479C41.9402 41.6413 40.4864 43.0952 38.693 43.0952H35.7529H37.6134C39.4069 43.0952 40.8607 44.549 40.8607 46.3425C40.8607 48.1359 39.4069 49.5898 37.6134 49.5898H34.6733V49.5895Z" fill="#FFF3DE"/>
<path d="M29.2198 24.3427C27.0585 26.8619 23.7749 28.5104 20.7319 31.4936C19.9698 32.2407 19.5346 33.2596 19.5346 34.3269V49.9091C19.5346 51.7443 20.7755 53.3685 22.5606 53.7948C24.0137 54.1418 25.3278 54.7905 26.6146 56.0837H18.8804C18.0035 56.0837 17.155 55.7868 16.459 55.2535C14.6232 53.8463 12.6802 53.5478 10.3195 53.4074V32.7588C15.8762 26.4095 22.9193 25.8172 22.4151 16.3162C22.3296 14.6838 23.6459 13.3187 25.281 13.3187C25.9089 13.3187 26.504 13.5227 26.9859 13.8768C27.4677 14.2309 27.839 14.7338 28.022 15.3354C28.9367 18.3343 29.4304 21.3188 29.2198 24.3427Z" fill="#FFE5C2"/>
<path d="M42.8279 24.125H40.3246V24.9375H42.8279C43.0626 24.9375 43.2603 25.0179 43.4211 25.1787C43.5819 25.3395 43.6623 25.5321 43.6623 25.7563C43.6623 25.9806 43.5819 26.1711 43.4211 26.3276C43.2603 26.4842 43.0626 26.5625 42.8279 26.5625H40.3246V28.1875C40.3246 28.416 40.2442 28.6086 40.0834 28.7651C39.9226 28.9217 39.7271 29 39.4967 29C39.2664 29 39.0708 28.9217 38.91 28.7651C38.7492 28.6086 38.6688 28.416 38.6688 28.1875V26.5625H37.8344C37.5997 26.5625 37.402 26.4842 37.2412 26.3276C37.0804 26.1711 37 25.9806 37 25.7563C37 25.5321 37.0804 25.3395 37.2412 25.1787C37.402 25.0179 37.5997 24.9375 37.8344 24.9375H38.6688V24.125H37.8344C37.5997 24.125 37.402 24.0467 37.2412 23.8901C37.0804 23.7336 37 23.5431 37 23.3188C37 23.0946 37.0804 22.902 37.2412 22.7412C37.402 22.5804 37.5997 22.5 37.8344 22.5H38.6688V16.8125C38.6688 16.5924 38.7492 16.402 38.91 16.2412C39.0708 16.0804 39.2642 16 39.4902 16H42.8279C43.5841 16 44.2838 16.182 44.927 16.5459C45.5702 16.9098 46.0765 17.4028 46.4459 18.0249C46.8153 18.647 47 19.3262 47 20.0625C47 20.7988 46.8153 21.478 46.4459 22.1001C46.0765 22.7222 45.5702 23.2152 44.927 23.5791C44.2838 23.943 43.5841 24.125 42.8279 24.125ZM42.8279 17.625H40.3246V22.5H42.8279C43.5233 22.5 44.1143 22.2609 44.601 21.7827C45.0878 21.3045 45.3312 20.729 45.3312 20.0562C45.3312 19.3833 45.0878 18.8099 44.601 18.3359C44.1143 17.862 43.5233 17.625 42.8279 17.625Z" fill="#26282F"/>
</svg>
