<svg width="52" height="52" viewBox="0 0 52 52" fill="none" xmlns="http://www.w3.org/2000/svg">
<path d="M8.55668 1.59835L14.1944 7.23598C14.9102 7.9518 14.9102 9.11225 14.1944 9.82806L10.0035 14.0189C9.28773 14.7348 8.12728 14.7348 7.41146 14.0189L1.77373 8.38131C1.38759 7.99516 0.730781 8.17371 0.587882 8.70072C-0.482384 12.648 0.529788 17.0417 3.62907 20.141C7.00196 23.5138 11.9076 24.4147 16.1029 22.8501L40.5017 49.5308C43.0069 52.2703 47.2913 52.366 49.9164 49.741C52.5539 47.1035 52.4429 42.7945 49.6732 40.2963L22.9316 16.1764C24.6269 11.9278 23.7561 6.89331 20.3165 3.45359C17.2172 0.354312 12.8234 -0.65786 8.8761 0.412406C8.34909 0.555304 8.17054 1.21221 8.55668 1.59835ZM47.1226 45.089C47.1226 46.167 46.2488 47.0409 45.1708 47.0409C44.0928 47.0409 43.219 46.167 43.219 45.089C43.219 44.0111 44.0928 43.1372 45.1708 43.1372C46.2488 43.1372 47.1226 44.0111 47.1226 45.089Z" fill="#605F6D"/>
<path d="M20.7098 13.7178L23.0596 15.8374C24.5779 11.6622 23.665 6.80235 20.3163 3.45363C20.065 3.20227 19.8042 2.96634 19.5367 2.74249C21.7455 6.01189 22.1362 10.1429 20.7098 13.7178Z" fill="#53515E"/>
<path d="M38.2618 47.0815L40.5016 49.5307C43.0068 52.2702 47.2912 52.3659 49.9163 49.7409C52.5538 47.1034 52.4428 42.7943 49.6731 40.2962L48.7641 39.4764C50.159 41.9498 49.819 45.1581 47.6947 47.2824C45.0696 49.9072 40.7671 49.8211 38.2618 47.0815Z" fill="#53515E"/>
<path d="M16.1029 22.85L13.8812 20.3915C9.99908 21.8394 5.50951 21.1744 2.18811 18.3946C2.60411 19.0103 3.08389 19.5959 3.62898 20.141C7.00187 23.5138 11.9076 24.4147 16.1029 22.85Z" fill="#53515E"/>
<path d="M31.0622 23.51L28.988 25.5842L27.5987 24.1948C26.7377 23.3339 25.3418 23.3339 24.4809 24.1948L22.5825 26.0933C23.0605 27.3246 23.0586 28.6992 22.5763 29.9292L27.1663 34.9485C28.17 34.4807 29.2905 34.3463 30.3614 34.5456C30.9985 34.6642 31.653 34.4624 32.1112 34.0042L33.2006 32.9147C34.0616 32.0538 34.0616 30.658 33.2006 29.797C32.4333 29.0297 32.4333 27.7856 33.2006 27.0183L34.0309 26.1879L31.0622 23.51Z" fill="#53515E"/>
<path d="M51.548 6.46805L47.9804 2.90047C47.6372 2.55729 47.0598 2.64453 46.8333 3.07373L44.9128 6.71241L27.3628 24.2622L30.1861 27.0855L47.7361 9.53575L51.3748 7.6151C51.804 7.38861 51.8911 6.81123 51.548 6.46805Z" fill="#E9EBF2"/>
<path d="M51.548 6.46798L50.6473 5.56732C50.7104 5.86805 50.5781 6.1963 50.2789 6.35413L46.6402 8.27478L29.0903 25.8246L27.4454 24.1797L27.3629 24.2621L30.1862 27.0855L47.7361 9.53568L51.3748 7.61503C51.804 7.38854 51.8912 6.81116 51.548 6.46798Z" fill="#C7CAD3"/>
<path d="M24.2228 34.4964C25.746 32.9733 27.9694 32.5794 29.8562 33.312L31.7546 31.4136C32.6156 30.5526 32.6156 29.1568 31.7546 28.2958L26.1525 22.6937C25.2916 21.8328 23.8957 21.8328 23.0349 22.6937L21.1365 24.5921C21.869 26.479 21.4751 28.7024 19.952 30.2255C18.429 31.7486 16.2055 32.1425 14.3187 31.4099L4.25445 41.4742C1.8465 43.8821 1.8465 47.7861 4.25445 50.194C6.66239 52.602 10.5663 52.602 12.9743 50.194L23.0385 40.1298C22.3058 38.2431 22.6997 36.0196 24.2228 34.4964Z" fill="#FFDC64"/>
<path d="M31.7547 28.2958L30.43 26.9711C30.6155 27.7001 30.4255 28.505 29.855 29.0755L27.9566 30.9739C26.0699 30.2413 23.8464 30.6353 22.3233 32.1583C20.8001 33.6815 20.4062 35.9049 21.1388 37.7917L11.0746 47.8559C8.8777 50.0528 5.43615 50.2443 3.021 48.4325C3.31725 49.0703 3.72838 49.6678 4.25447 50.194C6.66242 52.6019 10.5664 52.6019 12.9743 50.194L23.0386 40.1298C22.306 38.2429 22.7 36.0195 24.223 34.4964C25.7461 32.9733 27.9695 32.5794 29.8563 33.312L31.7548 31.4136C32.6156 30.5526 32.6156 29.1568 31.7547 28.2958Z" fill="#FFC850"/>
<path d="M7.81816 44.6455C7.60783 44.6455 7.39749 44.5652 7.23692 44.4048C6.91598 44.0837 6.91598 43.5633 7.23692 43.2423L15.0234 35.4558C15.3445 35.1349 15.8649 35.1349 16.1859 35.4558C16.5068 35.7768 16.5068 36.2972 16.1859 36.6183L8.3994 44.4048C8.23883 44.5652 8.0284 44.6455 7.81816 44.6455Z" fill="#FF6B5C"/>
<path d="M10.6951 47.5224C10.4848 47.5224 10.2744 47.4422 10.1139 47.2817C9.79293 46.9607 9.79293 46.4403 10.1139 46.1192L17.9004 38.3327C18.2214 38.0119 18.7418 38.0119 19.0629 38.3327C19.3838 38.6538 19.3838 39.1742 19.0629 39.4952L11.2764 47.2817C11.1158 47.4422 10.9053 47.5224 10.6951 47.5224Z" fill="#FF6B5C"/>
</svg>
