<svg width="33" height="31" viewBox="0 0 33 31" fill="none" xmlns="http://www.w3.org/2000/svg">
<g clip-path="url(#clip0)">
<path d="M6.28959 25.2055C6.00303 24.9171 5.66057 24.6778 5.27889 24.4994C4.88597 24.3138 4.45748 24.1967 4.01609 24.1544C3.9533 24.1459 3.88994 24.1412 3.82645 24.1404H3.60334C2.89574 24.1325 2.20201 24.3171 1.61318 24.6699C1.03896 25.0124 0.584773 25.4945 0.303514 26.06C0.207827 26.2606 0.133134 26.4688 0.0804033 26.6819C-0.0281032 27.1151 -0.0281032 27.5646 0.0804033 27.9978C0.133038 28.2115 0.207732 28.4203 0.303514 28.6216C0.589488 29.1818 1.04289 29.6596 1.61318 30.0017C2.1999 30.3574 2.89348 30.5436 3.6011 30.5352C3.87569 30.5366 4.14958 30.5103 4.41768 30.457C4.66833 30.4033 4.91265 30.3281 5.14726 30.2324L5.25212 30.1802C5.30613 30.1511 5.36287 30.1262 5.42168 30.106L5.57787 30.0518L5.65818 30.1621C5.73148 30.2759 5.83699 30.3702 5.96397 30.4353C6.09094 30.5005 6.23485 30.5343 6.38106 30.5332C6.60228 30.5323 6.81438 30.4539 6.97231 30.3146C7.05605 30.25 7.12346 30.17 7.17002 30.0801C7.21658 29.9901 7.24122 29.8923 7.24228 29.7931V27.3378C7.23906 26.942 7.15118 26.5504 6.98346 26.1844C6.81633 25.8248 6.58162 25.4936 6.28959 25.2055ZM5.36591 28.0138C5.26734 28.216 5.12732 28.3998 4.95316 28.5554C4.77774 28.7107 4.57001 28.8334 4.34183 28.9165C4.10456 29.0034 3.85063 29.0477 3.5944 29.0469C3.34822 29.0465 3.1049 28.9994 2.88045 28.9084C2.65708 28.8197 2.45252 28.6969 2.27582 28.5454C2.09697 28.391 1.9517 28.208 1.84745 28.0058C1.73788 27.7962 1.68148 27.5674 1.68234 27.3358C1.68274 27.1104 1.73595 26.8876 1.83852 26.6819C1.93901 26.4774 2.08129 26.2916 2.25797 26.1343C2.43341 25.9778 2.63906 25.8514 2.86484 25.7612C3.09559 25.6704 3.34475 25.6235 3.59664 25.6235C3.84853 25.6235 4.0977 25.6704 4.32845 25.7612C4.55773 25.85 4.76655 25.9766 4.94422 26.1343C5.12087 26.2916 5.26314 26.4774 5.36367 26.6819C5.46624 26.8876 5.51946 27.1104 5.51985 27.3358C5.5228 27.571 5.47033 27.8041 5.36591 28.0198V28.0138Z" fill="white"/>
<path d="M12.222 24.1566C11.7503 24.1725 11.2856 24.2642 10.8499 24.4274C10.431 24.5831 10.0475 24.8068 9.7187 25.0873C9.40037 25.368 9.14377 25.7001 8.96235 26.0662C8.77051 26.4397 8.67227 26.8464 8.67454 27.2577V29.8133C8.67072 29.9128 8.69019 30.0118 8.7317 30.1041C8.77321 30.1964 8.83584 30.2798 8.91551 30.3489C8.99024 30.4153 9.07921 30.4673 9.17702 30.5018C9.27483 30.5362 9.37943 30.5525 9.48444 30.5495C9.70746 30.5606 9.92634 30.4921 10.0935 30.3589C10.1718 30.2982 10.2353 30.2235 10.2798 30.1396C10.3244 30.0557 10.3491 29.9644 10.3523 29.8715V27.352C10.3459 27.1182 10.3946 26.8858 10.4951 26.67C10.5906 26.4682 10.7277 26.2845 10.899 26.1284C11.0749 25.9711 11.2838 25.8466 11.5136 25.7622C11.7434 25.6779 11.9894 25.6353 12.2376 25.637C12.4643 25.6341 12.6813 25.5538 12.8445 25.4123C12.922 25.3472 12.9836 25.2683 13.0251 25.1805C13.0666 25.0928 13.0871 24.9981 13.0855 24.9028C13.0707 24.7019 12.9746 24.5128 12.8155 24.3712C12.7384 24.3005 12.6459 24.2449 12.5438 24.208C12.4416 24.171 12.3321 24.1535 12.222 24.1566Z" fill="white"/>
<path d="M20.6981 28.8343C20.6534 28.7498 20.5887 28.6751 20.5084 28.6156C20.3443 28.4809 20.1282 28.4089 19.906 28.415H19.8904C19.6673 28.4114 19.4508 28.4829 19.2835 28.6156C19.1222 28.7547 18.9298 28.8614 18.7191 28.9286C18.4749 29.0027 18.2181 29.0373 17.9605 29.0309C17.6966 29.0321 17.4353 28.9843 17.193 28.8904C16.9616 28.8007 16.7529 28.6697 16.5794 28.5053C16.4214 28.342 16.2988 28.1536 16.218 27.9497C16.1332 27.737 16.0968 27.5112 16.1109 27.2857V25.6389H18.0073C18.1158 25.6376 18.2227 25.616 18.3214 25.5756C18.4201 25.5352 18.5084 25.4768 18.5807 25.4042C18.6606 25.337 18.7248 25.2562 18.7695 25.1665C18.8142 25.0768 18.8385 24.98 18.841 24.8817C18.8435 24.7834 18.8241 24.6856 18.784 24.5942C18.7439 24.5027 18.6839 24.4194 18.6075 24.3491C18.5301 24.2778 18.4362 24.2229 18.3324 24.1882C18.2287 24.1536 18.1176 24.14 18.0073 24.1485H16.1109V22.7122C16.115 22.6169 16.0949 22.5219 16.0519 22.4347C16.009 22.3474 15.9445 22.2701 15.8632 22.2087C15.6799 22.0737 15.4487 22.0024 15.2117 22.0081C14.9782 22.0023 14.7504 22.0737 14.5714 22.2087C14.4902 22.2701 14.4256 22.3474 14.3827 22.4347C14.3398 22.5219 14.3196 22.6169 14.3238 22.7122V27.2737C14.315 27.7351 14.4169 28.1928 14.6227 28.6156C14.8139 29.0047 15.091 29.3548 15.4371 29.6447C15.7859 29.933 16.1935 30.1578 16.6374 30.3066C17.1049 30.4629 17.6 30.5417 18.0988 30.5393C18.5583 30.5428 19.0137 30.4622 19.4375 30.3026C19.8633 30.1382 20.252 29.905 20.5843 29.6146C20.6556 29.5512 20.7091 29.4735 20.7404 29.3879C20.7747 29.2969 20.7898 29.201 20.7851 29.1051C20.7765 29.0105 20.747 28.9184 20.6981 28.8343Z" fill="white"/>
<path d="M32.2796 29.2676L30.1244 27.3379L32.2774 25.4082C32.3516 25.3383 32.4095 25.2559 32.4478 25.1656C32.4861 25.0754 32.5041 24.9792 32.5005 24.8826C32.5046 24.7875 32.4869 24.6927 32.4485 24.604C32.4102 24.5153 32.3519 24.4347 32.2774 24.3671C32.1228 24.2246 31.912 24.1424 31.6906 24.1384H31.6817C31.5791 24.1389 31.4777 24.1582 31.3837 24.1951C31.2898 24.232 31.2052 24.2857 31.1351 24.3531L28.933 26.2848L26.7777 24.3711C26.6156 24.2371 26.4082 24.1559 26.1887 24.1404C26.0783 24.1365 25.9683 24.1548 25.8667 24.194C25.7652 24.2332 25.6747 24.2924 25.6019 24.3671C25.4572 24.5139 25.3695 24.6991 25.352 24.8947C25.3448 24.9853 25.3612 25.0762 25.3999 25.1601C25.4386 25.244 25.4986 25.3187 25.5751 25.3781L27.7772 27.3359L25.5751 29.2936C25.4982 29.3609 25.4385 29.4424 25.4 29.5324C25.3615 29.6225 25.3451 29.7189 25.352 29.8152C25.359 30.0092 25.4493 30.1933 25.6041 30.3287C25.6798 30.4002 25.7725 30.4555 25.8753 30.4902C25.9781 30.5249 26.0883 30.5383 26.1976 30.5293C26.4155 30.5242 26.6253 30.4536 26.7933 30.3287L28.9396 28.407L31.0949 30.2926C31.1721 30.37 31.2667 30.4319 31.3725 30.4741C31.4783 30.5163 31.5927 30.5378 31.7084 30.5373C31.8156 30.5413 31.9225 30.5255 32.0226 30.491C32.1228 30.4565 32.214 30.404 32.2908 30.3367C32.3726 30.2681 32.4368 30.1843 32.4788 30.0911C32.5208 29.9979 32.5396 29.8976 32.5339 29.7971C32.5331 29.698 32.5102 29.6001 32.4665 29.5092C32.4228 29.4182 32.3593 29.336 32.2796 29.2676Z" fill="white"/>
<path d="M23.5383 24.353C23.485 24.3117 23.4266 24.276 23.3643 24.2467C23.2429 24.1778 23.1018 24.1423 22.9582 24.1444C22.8147 24.1423 22.6736 24.1778 22.5522 24.2467C22.4898 24.276 22.4314 24.3117 22.3781 24.353C22.2986 24.4117 22.2346 24.4855 22.1906 24.5691C22.1466 24.6526 22.1238 24.744 22.1238 24.8364V29.8372C22.1239 29.9357 22.1481 30.0329 22.1948 30.122C22.2414 30.2111 22.3094 30.2899 22.3937 30.3527C22.5467 30.4741 22.7453 30.5387 22.9493 30.5332H22.9783C23.1823 30.5387 23.3809 30.4741 23.5338 30.3527C23.6182 30.2899 23.6862 30.2111 23.7328 30.122C23.7795 30.0329 23.8037 29.9357 23.8038 29.8372V24.8364C23.8024 24.7431 23.7779 24.6513 23.7319 24.5677C23.686 24.484 23.6198 24.4107 23.5383 24.353Z" fill="white"/>
<path d="M23.5829 22.2467C23.5116 22.176 23.4244 22.1198 23.3271 22.0817C23.2297 22.0437 23.1245 22.0247 23.0184 22.026C22.8013 22.0219 22.5908 22.0938 22.4316 22.2266C22.3518 22.2889 22.2874 22.3656 22.2424 22.4516C22.1974 22.5376 22.173 22.6311 22.1706 22.7261C22.1614 22.8289 22.1765 22.9323 22.215 23.0294C22.2534 23.1266 22.3143 23.2153 22.3937 23.2898C22.5635 23.428 22.7849 23.5039 23.014 23.5024C23.1193 23.5032 23.2237 23.4839 23.3202 23.4459C23.4167 23.4079 23.5032 23.3519 23.574 23.2818C23.727 23.1434 23.8128 22.9563 23.8128 22.7612C23.8128 22.5661 23.727 22.379 23.574 22.2407L23.5829 22.2467Z" fill="white"/>
</g>
<g clip-path="url(#clip1)">
<path d="M16.2607 8.11548C13.8213 8.11548 11.6038 10.1116 11.6038 12.5733C11.6071 13.4789 11.9064 14.3609 12.4598 15.0965C13.6439 14.4255 14.9279 13.9513 16.2695 13.9513C17.6112 13.9513 18.8929 14.4255 20.0793 15.0965C20.6327 14.3609 20.932 13.4789 20.9353 12.5733C20.9264 10.1116 18.7066 8.11548 16.2607 8.11548Z" fill="#26282F"/>
<path d="M16.2589 0C10.2715 0 5.41724 12.1014 5.41724 17.751C5.41724 22.1348 8.34221 17.4272 12.4492 15.0966C11.8697 14.3305 11.5699 13.4038 11.5959 12.4592C11.622 11.5146 11.9724 10.6043 12.5933 9.86826C12.3953 10.3202 12.2936 10.8051 12.2939 11.2949C12.2939 12.2987 12.7117 13.2614 13.4552 13.9712C14.1988 14.6809 15.2074 15.0797 16.2589 15.0797C17.3105 15.0797 18.319 14.6809 19.0626 13.9712C19.8062 13.2614 20.224 12.2987 20.224 11.2949C20.2243 10.8051 20.1226 10.3202 19.9246 9.86826C20.5455 10.6043 20.8959 11.5146 20.922 12.4592C20.948 13.4038 20.6482 14.3305 20.0687 15.0966C24.1779 17.425 27.1007 22.1348 27.1007 17.751C27.1007 12.1035 22.2464 0 16.2589 0Z" fill="white"/>
</g>
<defs>
<clipPath id="clip0">
<rect width="32.5251" height="8.55324" fill="white" transform="translate(0 21.9941)"/>
</clipPath>
<clipPath id="clip1">
<rect width="21.6834" height="19.5503" fill="white" transform="translate(5.42114)"/>
</clipPath>
</defs>
</svg>
