<svg width="17" height="17" viewBox="0 0 17 17" fill="none" xmlns="http://www.w3.org/2000/svg">
<path d="M10.854 5.40008L10.665 5.22008C10.197 4.73408 10.278 4.50908 10.737 4.05008L13.185 1.57508C13.914 0.83708 14.049 0.48608 14.742 1.14308L14.931 1.32308L10.854 5.40008ZM11.331 5.80508L15.291 1.84508C15.921 2.69108 17.397 4.96808 16.668 6.65108C16.011 8.15408 15.687 8.22608 14.868 9.35108C13.203 11.2501 11.106 13.2841 9.46803 14.8141C8.33403 15.6331 8.28903 16.0111 6.76803 16.6141C5.14803 17.2531 2.80803 15.8131 1.92603 15.2101L5.88603 11.2501L6.94803 12.7081C7.25403 13.1221 8.02803 12.6541 8.56803 12.1141C9.50403 11.1691 11.43 9.25208 12.168 8.45108C12.699 7.92008 13.176 7.14608 12.762 6.83108L11.331 5.80508ZM1.41303 14.8501L1.22403 14.6611C0.612026 13.9951 0.963026 13.8511 1.69203 13.1311L4.15803 10.6831C4.61703 10.2421 4.83303 10.1431 5.30103 10.5841L5.48103 10.7731L1.41303 14.8501Z" fill="#C4C4C4"/>
</svg>
