<svg width="14" height="12" viewBox="0 0 14 12" fill="none" xmlns="http://www.w3.org/2000/svg">
<path d="M13.47 0.634125H0.530148C0.40814 0.634268 0.291173 0.682811 0.204917 0.769101C0.118661 0.85539 0.0701636 0.972377 0.0700684 1.09438V2.0203C0.0700684 2.06296 0.116328 2.11193 0.154128 2.13172L6.95561 6.01666C6.97303 6.02662 6.99278 6.03178 7.01285 6.0316C7.03336 6.03166 7.05351 6.02619 7.07117 6.01577L13.6671 2.1355C13.7042 2.1148 13.8024 2.06008 13.8393 2.03488C13.884 2.00446 13.9301 1.97693 13.9301 1.92238V1.09421C13.9299 0.972228 13.8814 0.855288 13.7952 0.769037C13.7089 0.682786 13.592 0.634268 13.47 0.634125Z" fill="#C4C4C4"/>
<path d="M13.8727 3.4165C13.855 3.4064 13.835 3.40115 13.8146 3.40128C13.7942 3.4014 13.7742 3.4069 13.7566 3.41722L10.024 5.6134C10.0091 5.62207 9.99637 5.63397 9.98672 5.64823C9.97708 5.66249 9.97077 5.67874 9.96826 5.69577C9.96576 5.7128 9.96712 5.73018 9.97224 5.74661C9.97737 5.76305 9.98613 5.77811 9.99787 5.7907L13.7311 9.81496C13.7418 9.82658 13.7548 9.83585 13.7692 9.84217C13.7837 9.84849 13.7993 9.85173 13.8151 9.85168C13.8456 9.85163 13.8749 9.8395 13.8964 9.81794C13.918 9.79638 13.9301 9.76715 13.9302 9.73666V3.5164C13.9302 3.49617 13.925 3.47627 13.9149 3.45873C13.9048 3.44119 13.8903 3.42662 13.8727 3.4165Z" fill="#C4C4C4"/>
<path d="M8.94833 6.35071C8.9306 6.33141 8.9068 6.31878 8.88089 6.31491C8.85498 6.31105 8.82852 6.31619 8.80594 6.32947L7.30978 7.20985C7.22213 7.2605 7.1228 7.28748 7.02156 7.28815C6.92033 7.28881 6.82066 7.26313 6.73234 7.21363L5.41564 6.46141C5.39439 6.44931 5.36983 6.44428 5.34552 6.44706C5.32122 6.44985 5.29843 6.46029 5.28046 6.47689L0.280425 11.1148C0.267317 11.127 0.257253 11.1422 0.251035 11.159C0.244817 11.1758 0.242616 11.1939 0.244609 11.2117C0.246602 11.2296 0.252734 11.2467 0.262515 11.2617C0.272296 11.2768 0.285455 11.2893 0.300945 11.2984C0.378705 11.3441 0.453765 11.3659 0.530085 11.3659H13.3376C13.36 11.3659 13.382 11.3594 13.4007 11.3471C13.4194 11.3347 13.4341 11.3172 13.4429 11.2966C13.4519 11.2761 13.4547 11.2534 13.4509 11.2314C13.4471 11.2093 13.437 11.1889 13.4217 11.1726L8.94833 6.35071Z" fill="#C4C4C4"/>
<path d="M4.18019 5.92824C4.19343 5.91599 4.20361 5.90081 4.2099 5.8839C4.21619 5.867 4.21842 5.84886 4.21641 5.83093C4.21439 5.81301 4.20819 5.79581 4.1983 5.78073C4.18842 5.76564 4.17512 5.75309 4.15949 5.7441L0.24161 3.50634C0.224125 3.49641 0.204341 3.49125 0.184235 3.49137C0.164129 3.49148 0.144406 3.49688 0.127039 3.50701C0.109672 3.51714 0.0952698 3.53166 0.0852724 3.5491C0.0752749 3.56655 0.0700328 3.58631 0.0700702 3.60642V9.47802C0.0699433 9.50044 0.0763951 9.52241 0.088627 9.54121C0.100859 9.56 0.118334 9.5748 0.138889 9.58376C0.159444 9.59273 0.182177 9.59547 0.204274 9.59165C0.22637 9.58782 0.246861 9.57761 0.26321 9.56226L4.18019 5.92824Z" fill="#C4C4C4"/>
</svg>
