<svg width="11" height="11" viewBox="0 0 11 11" fill="none" xmlns="http://www.w3.org/2000/svg">
<path d="M9.44962 0.42627H1.92342C1.07368 0.42627 0.42627 1.07368 0.42627 1.92342V9.44961C0.42627 10.2993 1.07368 10.9468 1.92342 10.9468H9.44962C10.2993 10.9468 10.9468 10.2993 10.9468 9.44961V1.92342C10.9468 1.07368 10.2993 0.42627 9.44962 0.42627ZM5.68652 8.84266C7.42644 8.84266 8.84266 7.46691 8.84266 5.80791C8.84266 5.52466 8.8022 5.20095 8.72127 4.95817H9.61147V9.2473C9.61147 9.44961 9.44961 9.65193 9.20683 9.65193H2.1662C1.96388 9.65193 1.76156 9.49008 1.76156 9.2473V4.91771H2.69222C2.6113 5.20095 2.57083 5.4842 2.57083 5.76744C2.53037 7.46691 3.94659 8.84266 5.68652 8.84266ZM5.68652 7.62876C4.55354 7.62876 3.66334 6.73857 3.66334 5.64605C3.66334 4.55354 4.55354 3.66334 5.68652 3.66334C6.81949 3.66334 7.70969 4.55354 7.70969 5.64605C7.70969 6.77903 6.81949 7.62876 5.68652 7.62876ZM9.57101 3.29917C9.57101 3.54195 9.36869 3.74427 9.12591 3.74427H7.99293C7.75015 3.74427 7.54784 3.54195 7.54784 3.29917V2.20666C7.54784 1.96388 7.75015 1.76156 7.99293 1.76156H9.12591C9.36869 1.76156 9.57101 1.96388 9.57101 2.20666V3.29917Z" fill="#26282F"/>
</svg>
