<svg width="13" height="17" viewBox="0 0 13 17" fill="none" xmlns="http://www.w3.org/2000/svg">
<path d="M6.5 7.3125C7.15584 7.3125 7.6875 6.78084 7.6875 6.125C7.6875 5.46916 7.15584 4.9375 6.5 4.9375C5.84416 4.9375 5.3125 5.46916 5.3125 6.125C5.3125 6.78084 5.84416 7.3125 6.5 7.3125Z" fill="white"/>
<path d="M6.5 0.1875C3.22621 0.1875 0.5625 2.73506 0.5625 5.86524C0.5625 7.35592 1.24197 9.3383 2.58199 11.7575C3.65816 13.6998 4.90318 15.4562 5.55074 16.3301C5.66016 16.4794 5.80323 16.6008 5.96835 16.6846C6.13347 16.7683 6.31599 16.8119 6.50111 16.8119C6.68624 16.8119 6.86876 16.7683 7.03387 16.6846C7.19899 16.6008 7.34206 16.4794 7.45148 16.3301C8.09793 15.4562 9.34406 13.6998 10.4202 11.7575C11.758 9.33904 12.4375 7.35666 12.4375 5.86524C12.4375 2.73506 9.77379 0.1875 6.5 0.1875ZM6.5 8.5C6.03027 8.5 5.57109 8.36071 5.18052 8.09974C4.78995 7.83877 4.48554 7.46785 4.30579 7.03387C4.12603 6.5999 4.07899 6.12237 4.17063 5.66166C4.26227 5.20096 4.48847 4.77777 4.82062 4.44562C5.15277 4.11347 5.57596 3.88728 6.03666 3.79564C6.49737 3.704 6.9749 3.75103 7.40887 3.93079C7.84285 4.11054 8.21377 4.41496 8.47474 4.80552C8.73571 5.19609 8.875 5.65527 8.875 6.125C8.87431 6.75468 8.62387 7.35837 8.17862 7.80362C7.73337 8.24887 7.12968 8.49931 6.5 8.5Z" fill="white"/>
</svg>
