<svg width="16" height="16" viewBox="0 0 16 16" fill="none" xmlns="http://www.w3.org/2000/svg">
<path d="M15.5434 11.3078L12.0434 9.80779C11.8939 9.74407 11.7277 9.73065 11.5699 9.76954C11.4121 9.80842 11.2712 9.89752 11.1684 10.0234L9.61844 11.9172C7.18586 10.7702 5.22819 8.81256 4.08125 6.37998L5.975 4.82998C6.10115 4.72738 6.19044 4.58648 6.22934 4.42859C6.26825 4.27071 6.25466 4.10445 6.19063 3.95498L4.69063 0.454985C4.62035 0.293863 4.49605 0.162312 4.33917 0.083016C4.18229 0.00372016 4.00266 -0.0183503 3.83125 0.0206102L0.58125 0.77061C0.41599 0.808772 0.268545 0.901822 0.16298 1.03457C0.0574141 1.16733 -3.80691e-05 1.33194 1.89256e-08 1.50155C1.89256e-08 9.51717 6.49687 16.0015 14.5 16.0015C14.6697 16.0017 14.8343 15.9442 14.9672 15.8387C15.1 15.7331 15.1931 15.5856 15.2312 15.4203L15.9812 12.1703C16.02 11.998 15.9974 11.8177 15.9175 11.6603C15.8376 11.5029 15.7053 11.3782 15.5434 11.3078Z" fill="white"/>
</svg>
