<svg width="50" height="60" viewBox="0 0 50 60" fill="none" xmlns="http://www.w3.org/2000/svg">
<path d="M43.6206 60H0.172363V4.13794H29.1379L43.6206 18.6207V60Z" fill="#FCF05A"/>
<path d="M49.8277 53.7931H6.37939V0H35.3449L49.8277 14.4828V53.7931Z" fill="#FDBD40"/>
<path d="M35.3447 14.4828H49.8275L35.3447 0V14.4828Z" fill="#F49E21"/>
<path d="M14.6552 45.5173H12.5862C12.0149 45.5173 11.5518 45.0541 11.5518 44.4828C11.5518 43.9115 12.0149 43.4483 12.5862 43.4483H14.6552C15.2265 43.4483 15.6897 43.9115 15.6897 44.4828C15.6897 45.0541 15.2265 45.5173 14.6552 45.5173Z" fill="#E9686A"/>
<path d="M43.6209 45.5173H18.7933C18.222 45.5173 17.7588 45.0541 17.7588 44.4828C17.7588 43.9115 18.222 43.4483 18.7933 43.4483H43.6209C44.1922 43.4483 44.6553 43.9115 44.6553 44.4828C44.6553 45.0541 44.1922 45.5173 43.6209 45.5173Z" fill="#E9686A"/>
<path d="M14.6552 39.3104H12.5862C12.0149 39.3104 11.5518 38.8472 11.5518 38.2759C11.5518 37.7046 12.0149 37.2414 12.5862 37.2414H14.6552C15.2265 37.2414 15.6897 37.7046 15.6897 38.2759C15.6897 38.8472 15.2265 39.3104 14.6552 39.3104Z" fill="#E9686A"/>
<path d="M43.6209 39.3104H18.7933C18.222 39.3104 17.7588 38.8472 17.7588 38.2759C17.7588 37.7046 18.222 37.2414 18.7933 37.2414H43.6209C44.1922 37.2414 44.6553 37.7046 44.6553 38.2759C44.6553 38.8472 44.1922 39.3104 43.6209 39.3104Z" fill="#E9686A"/>
<path d="M14.6552 33.1035H12.5862C12.0149 33.1035 11.5518 32.6403 11.5518 32.069C11.5518 31.4977 12.0149 31.0345 12.5862 31.0345H14.6552C15.2265 31.0345 15.6897 31.4977 15.6897 32.069C15.6897 32.6403 15.2265 33.1035 14.6552 33.1035Z" fill="#E9686A"/>
<path d="M43.6209 33.1035H18.7933C18.222 33.1035 17.7588 32.6403 17.7588 32.069C17.7588 31.4977 18.222 31.0345 18.7933 31.0345H43.6209C44.1922 31.0345 44.6553 31.4977 44.6553 32.069C44.6553 32.6403 44.1922 33.1035 43.6209 33.1035Z" fill="#E9686A"/>
<path d="M14.6552 26.8966H12.5862C12.0149 26.8966 11.5518 26.4334 11.5518 25.8621C11.5518 25.2908 12.0149 24.8276 12.5862 24.8276H14.6552C15.2265 24.8276 15.6897 25.2908 15.6897 25.8621C15.6897 26.4334 15.2265 26.8966 14.6552 26.8966Z" fill="#E9686A"/>
<path d="M43.6209 26.8966H18.7933C18.222 26.8966 17.7588 26.4334 17.7588 25.8621C17.7588 25.2908 18.222 24.8276 18.7933 24.8276H43.6209C44.1922 24.8276 44.6553 25.2908 44.6553 25.8621C44.6553 26.4334 44.1922 26.8966 43.6209 26.8966Z" fill="#E9686A"/>
<path d="M14.6552 20.6897H12.5862C12.0149 20.6897 11.5518 20.2265 11.5518 19.6552C11.5518 19.0839 12.0149 18.6207 12.5862 18.6207H14.6552C15.2265 18.6207 15.6897 19.0839 15.6897 19.6552C15.6897 20.2265 15.2265 20.6897 14.6552 20.6897Z" fill="#E9686A"/>
<path d="M43.6209 20.6897H18.7933C18.222 20.6897 17.7588 20.2265 17.7588 19.6552C17.7588 19.0839 18.222 18.6207 18.7933 18.6207H43.6209C44.1922 18.6207 44.6553 19.0839 44.6553 19.6552C44.6553 20.2265 44.1922 20.6897 43.6209 20.6897Z" fill="#E9686A"/>
<path d="M12.5862 9.31036H18.7931V15.5173H12.5862V9.31036Z" fill="#E9686A"/>
</svg>
