<svg width="56" height="56" viewBox="0 0 56 56" fill="none" xmlns="http://www.w3.org/2000/svg">
<path d="M27.0625 0.8125H55.1875V31.75H27.0625V0.8125Z" fill="#EAE8E5"/>
<path d="M0.8125 28H34.5625V31.75H0.8125V28Z" fill="#454A6D"/>
<path d="M21.4375 28V20.5L24.4113 23.4738C25.8756 24.9381 28.2503 24.9381 29.7147 23.4738L36.4375 16.75L32.6875 13L27.0625 18.625L22.5597 13.3722C21.8472 12.5406 20.8075 12.0625 19.7125 12.0625H6.4375C4.36656 12.0625 2.6875 13.7416 2.6875 15.8125V24.25C2.6875 26.3209 4.36656 28 6.4375 28H21.4375Z" fill="#4AC3ED"/>
<path d="M15.8125 28H13.9375V24.25C13.9375 23.7325 13.5166 23.3125 13 23.3125H7.375V19.5625H9.25V21.4375H13C14.5506 21.4375 15.8125 22.6994 15.8125 24.25V28Z" fill="#31A9D4"/>
<path d="M16.75 7.375C16.75 10.1153 14.3978 12.3072 11.6022 12.0409C9.16469 11.8084 7.375 9.62219 7.375 7.17344V2.6875C7.375 1.65156 8.21406 0.8125 9.25 0.8125H14.875C15.9109 0.8125 16.75 1.65156 16.75 2.6875V3.625L18.625 7.375H16.75Z" fill="#E89D43"/>
<path d="M9.25 12.0625L12.0625 17.6875L14.875 12.0625H9.25Z" fill="#EAE8E5"/>
<path d="M44.875 8.42312L39.25 5.61062L34.0441 8.21406L33.2059 6.53594L39.25 3.51437L44.875 6.32687L50.0809 3.72344L50.9191 5.40156L44.875 8.42312Z" fill="#454A6D"/>
<path d="M32.9568 13.2773L38.5807 7.65334L39.9064 8.97897L34.2824 14.6029L32.9568 13.2773Z" fill="#454A6D"/>
<path d="M40.1875 13.9375H51.4375V15.8125H40.1875V13.9375Z" fill="#454A6D"/>
<path d="M40.1875 17.6875H51.4375V19.5625H40.1875V17.6875Z" fill="#454A6D"/>
<path d="M40.1875 21.4375H51.4375V23.3125H40.1875V21.4375Z" fill="#454A6D"/>
<path d="M40.1875 25.1875H51.4375V27.0625H40.1875V25.1875Z" fill="#454A6D"/>
<path d="M8.3125 44.875C5.72406 44.875 3.625 46.9741 3.625 49.5625V55.1875H13V49.5625C13 46.9741 10.9009 44.875 8.3125 44.875Z" fill="#76CC7A"/>
<path d="M8.3125 44.875C10.3836 44.875 12.0625 43.1961 12.0625 41.125C12.0625 39.0539 10.3836 37.375 8.3125 37.375C6.24143 37.375 4.5625 39.0539 4.5625 41.125C4.5625 43.1961 6.24143 44.875 8.3125 44.875Z" fill="#76CC7A"/>
<path d="M21.4375 44.875C18.8491 44.875 16.75 46.9741 16.75 49.5625V55.1875H26.125V49.5625C26.125 46.9741 24.0259 44.875 21.4375 44.875Z" fill="#76CC7A"/>
<path d="M21.4375 44.875C23.5086 44.875 25.1875 43.1961 25.1875 41.125C25.1875 39.0539 23.5086 37.375 21.4375 37.375C19.3664 37.375 17.6875 39.0539 17.6875 41.125C17.6875 43.1961 19.3664 44.875 21.4375 44.875Z" fill="#76CC7A"/>
<path d="M34.5625 44.875C31.9741 44.875 29.875 46.9741 29.875 49.5625V55.1875H39.25V49.5625C39.25 46.9741 37.1509 44.875 34.5625 44.875Z" fill="#76CC7A"/>
<path d="M34.5625 44.875C36.6336 44.875 38.3125 43.1961 38.3125 41.125C38.3125 39.0539 36.6336 37.375 34.5625 37.375C32.4914 37.375 30.8125 39.0539 30.8125 41.125C30.8125 43.1961 32.4914 44.875 34.5625 44.875Z" fill="#76CC7A"/>
<path d="M47.6875 44.875C45.0991 44.875 43 46.9741 43 49.5625V55.1875H52.375V49.5625C52.375 46.9741 50.2759 44.875 47.6875 44.875Z" fill="#76CC7A"/>
<path d="M47.6875 44.875C49.7586 44.875 51.4375 43.1961 51.4375 41.125C51.4375 39.0539 49.7586 37.375 47.6875 37.375C45.6164 37.375 43.9375 39.0539 43.9375 41.125C43.9375 43.1961 45.6164 44.875 47.6875 44.875Z" fill="#76CC7A"/>
<path d="M2.6875 31.75H32.6875V36.4375H2.6875V31.75Z" fill="#33385C"/>
</svg>
