<svg width="60" height="44" viewBox="0 0 60 44" fill="none" xmlns="http://www.w3.org/2000/svg">
<path d="M30.2978 4.96762C29.0761 4.88031 27.9411 5.23773 27.036 5.8934C26.9106 5.98422 26.7414 5.98293 26.616 5.89211C25.8017 5.30266 24.8011 4.95461 23.719 4.95461C23.449 4.95461 23.1844 4.97699 22.9264 5.01895C22.759 5.04613 22.607 4.92238 22.6007 4.75305C22.6007 4.75234 22.6007 4.75164 22.6006 4.75094C22.4938 2.11281 20.3213 0.00683594 17.6569 0.00683594C14.979 0.00683594 12.7979 2.13449 12.7118 4.7916V4.79324C12.708 4.91676 12.6 5.01086 12.4771 4.99797L12.4469 4.99481C12.2424 4.96856 12.034 4.95461 11.8223 4.95461C8.97169 4.95461 6.68419 7.36516 6.88704 10.2591C7.06001 12.7271 9.07938 14.7104 11.5498 14.8429C13.0116 14.9213 14.3438 14.3643 15.2968 13.424C16.1902 14.3056 17.4169 14.8502 18.7713 14.8502C19.6728 14.8502 20.5172 14.6078 21.2451 14.1866C21.9731 14.6079 22.8174 14.8502 23.7189 14.8502C24.8964 14.8502 25.9774 14.4381 26.8268 13.7513C27.6763 14.4381 28.7572 14.8502 29.9348 14.8502C32.7849 14.8502 35.0722 12.4403 34.8701 9.54695C34.7002 7.11238 32.7322 5.14152 30.2978 4.96762Z" fill="#F0F0F3"/>
<path d="M34.8702 9.54694C34.733 7.58159 33.4236 5.91905 31.6435 5.25952C31.8018 5.68679 31.903 6.14089 31.936 6.6128C32.1381 9.50616 29.8507 11.916 27.0006 11.916C25.8231 11.916 24.7422 11.504 23.8927 10.8171C23.0432 11.504 21.9622 11.916 20.7847 11.916C19.8832 11.916 19.0388 11.6737 18.3109 11.2525C17.583 11.6738 16.7386 11.916 15.8371 11.916C14.4828 11.916 13.256 11.3713 12.3626 10.4898C11.4096 11.4301 10.0774 11.9871 8.61565 11.9087C8.11386 11.8818 7.63128 11.7774 7.17847 11.6093C7.84749 13.4165 9.55069 14.7358 11.5498 14.843C13.0116 14.9214 14.3438 14.3644 15.2967 13.4241C16.1902 14.3057 17.4169 14.8503 18.7712 14.8503C19.6728 14.8503 20.5172 14.6079 21.2451 14.1867C21.973 14.608 22.8174 14.8503 23.7189 14.8503C24.8964 14.8503 25.9773 14.4382 26.8268 13.7514C27.6763 14.4382 28.7571 14.8503 29.9347 14.8503C32.785 14.8501 35.0724 12.4403 34.8702 9.54694Z" fill="#E0DDE2"/>
<path d="M19.9963 28.4557C19.1677 28.3704 18.3739 28.4762 17.6502 28.7307C16.6193 27.2771 14.8854 26.3571 12.943 26.4705C10.2043 26.6303 8.00269 28.8776 7.89535 31.6189C7.77523 34.6852 10.2254 37.2088 13.265 37.2088C13.7762 37.2088 14.2704 37.1366 14.7386 37.003C14.9239 36.9502 15.1216 37.0123 15.2422 37.1625C16.227 38.3887 17.7377 39.1743 19.4327 39.1743C22.5245 39.1743 25.0065 36.5632 24.7939 33.426C24.6186 30.8392 22.5753 28.7214 19.9963 28.4557Z" fill="#F0F0F3"/>
<path d="M24.794 33.426C24.6705 31.6034 23.6191 30.0148 22.1069 29.1415C22.2532 29.5709 22.3469 30.0235 22.3787 30.4918C22.5912 33.6291 20.1093 36.2401 17.0176 36.2401C15.3224 36.2401 13.8118 35.4544 12.8271 34.2282C12.7064 34.0779 12.5088 34.0158 12.3235 34.0687C11.8552 34.2023 11.361 34.2745 10.8499 34.2745C9.87592 34.2745 8.96315 34.0143 8.17542 33.5613C8.8946 35.6821 10.9013 37.2086 13.2652 37.2086C13.7764 37.2086 14.2706 37.1364 14.7389 37.0028C14.9241 36.95 15.1218 37.0121 15.2424 37.1623C16.2273 38.3885 17.7379 39.1742 19.4329 39.1742C22.5247 39.1744 25.0066 36.5634 24.794 33.426Z" fill="#E0DDE2"/>
<path d="M54.5618 17.462H5.31775L16.9067 33.2849C17.3605 33.9046 18.0826 34.2708 18.8508 34.2708H41.0286C41.7968 34.2708 42.5189 33.9046 42.9728 33.2849L54.5618 17.462Z" fill="#E0DDE2"/>
<path d="M47.7421 17.462L39.9584 28.0895C39.5045 28.7092 38.7824 29.0754 38.0143 29.0754H13.8236L16.9067 33.2849C17.3606 33.9046 18.0827 34.2708 18.8508 34.2708H41.0287C41.7968 34.2708 42.519 33.9046 42.9728 33.2849L54.5617 17.462H47.7421Z" fill="#C8C1C9"/>
<path d="M58.8281 19.6318H1.17188C0.524648 19.6318 0 19.1072 0 18.4599V10.8028C0 10.1556 0.524648 9.63092 1.17188 9.63092H58.8281C59.4754 9.63092 60 10.1556 60 10.8028V18.4599C60 19.1071 59.4754 19.6318 58.8281 19.6318Z" fill="#E0DDE2"/>
<path d="M58.7951 9.62991H56.5314V14.9573C56.5314 15.6228 55.992 16.1622 55.3264 16.1622H0V18.4259C0 19.0914 0.539414 19.6308 1.20492 19.6308H58.7951C59.4606 19.6308 60 19.0914 60 18.4259V10.8348C60 10.1694 59.4606 9.62991 58.7951 9.62991Z" fill="#C8C1C9"/>
<path d="M39.9794 30.769C39.7974 30.769 39.6137 30.7142 39.4543 30.6003C39.0484 30.3098 38.9549 29.7454 39.2452 29.3395L43.8793 22.863C44.1698 22.4572 44.7343 22.3636 45.1401 22.6539C45.5461 22.9444 45.6396 23.5088 45.3492 23.9147L40.7151 30.3912C40.5388 30.6377 40.2611 30.769 39.9794 30.769Z" fill="#786E79"/>
<path d="M19.9 30.769C19.6183 30.769 19.3407 30.6377 19.1643 30.3911L14.5302 23.9146C14.2399 23.5087 14.3335 22.9443 14.7393 22.6538C15.1454 22.3634 15.7097 22.4572 16.0001 22.8629L20.6342 29.3394C20.9246 29.7453 20.8309 30.3097 20.4251 30.6002C20.2657 30.7142 20.082 30.769 19.9 30.769Z" fill="#786E79"/>
<path d="M28.0718 30.7691C27.6352 30.7691 27.251 30.452 27.1804 30.0071L26.1519 23.5306C26.0737 23.0377 26.4099 22.5747 26.9028 22.4963C27.3957 22.4188 27.8588 22.7541 27.9371 23.2471L28.9655 29.7236C29.0438 30.2165 28.7076 30.6795 28.2147 30.7579C28.1666 30.7654 28.1189 30.7691 28.0718 30.7691Z" fill="#786E79"/>
<path d="M31.8078 30.7691C31.7607 30.7691 31.713 30.7654 31.6649 30.7579C31.1721 30.6796 30.836 30.2166 30.9141 29.7236L31.9426 23.2471C32.0208 22.7542 32.4841 22.4185 32.9769 22.4963C33.4698 22.5746 33.8058 23.0376 33.7277 23.5306L32.6992 30.0071C32.6286 30.4519 32.2444 30.7691 31.8078 30.7691Z" fill="#786E79"/>
<path d="M24.1245 30.7693C23.777 30.7693 23.4458 30.5678 23.2969 30.2294L20.4458 23.7529C20.2447 23.2961 20.4521 22.7628 20.9088 22.5617C21.3655 22.3605 21.899 22.5678 22.1001 23.0247L24.9511 29.5012C25.1522 29.958 24.9449 30.4913 24.4881 30.6924C24.3697 30.7445 24.2461 30.7693 24.1245 30.7693Z" fill="#786E79"/>
<path d="M35.7551 30.7693C35.6335 30.7693 35.51 30.7445 35.3915 30.6924C34.9347 30.4913 34.7274 29.958 34.9285 29.5012L37.7796 23.0247C37.9807 22.5679 38.514 22.3607 38.9708 22.5617C39.4276 22.7628 39.6349 23.2961 39.4338 23.7529L36.5827 30.2294C36.4338 30.5678 36.1025 30.7693 35.7551 30.7693Z" fill="#786E79"/>
<path d="M32.3612 16.4032H27.5183C26.5858 16.4032 25.8298 15.6473 25.8298 14.7148V14.6131C25.8298 13.6806 26.5858 12.9247 27.5183 12.9247H32.3612C33.2936 12.9247 34.0496 13.6806 34.0496 14.6131V14.7148C34.0495 15.6473 33.2936 16.4032 32.3612 16.4032Z" fill="#FB636F"/>
<path d="M32.3612 12.9247H32.323V12.9882C32.323 13.9206 31.567 14.6766 30.6345 14.6766H25.8298V14.7148C25.8298 15.6473 26.5858 16.4032 27.5183 16.4032H32.3612C33.2936 16.4032 34.0496 15.6474 34.0496 14.7148V14.6131C34.0495 13.6806 33.2936 12.9247 32.3612 12.9247Z" fill="#FA2A3B"/>
<path d="M52.9426 36.4993C52.9426 34.3568 51.3961 32.5766 49.3588 32.2117C49.1941 32.1822 49.0565 32.0717 48.9933 31.9168C48.3436 30.3272 46.783 29.2067 44.9597 29.2067C44.8952 29.2067 44.8311 29.2082 44.7674 29.2111C44.5871 29.2195 44.4185 29.1302 44.3246 28.9761C43.5599 27.7213 42.1795 26.883 40.6026 26.883C38.1963 26.883 36.2456 28.8337 36.2456 31.24C36.2456 31.3701 36.2515 31.4986 36.2628 31.6258C36.2899 31.9286 36.0405 32.1775 35.7374 32.1544C35.6294 32.1462 35.5203 32.142 35.4103 32.142C32.9792 32.142 31.0131 34.1331 31.0538 36.5736C31.0937 38.9625 33.0927 40.8562 35.482 40.8562H40.5215C40.8002 40.8562 41.0434 41.0345 41.1395 41.2961C41.7178 42.8699 43.2294 43.9929 45.0038 43.9929C46.8076 43.9929 48.3395 42.8325 48.8959 41.2178C48.9737 40.9921 49.1646 40.8241 49.3992 40.7798C51.4166 40.3988 52.9426 38.6275 52.9426 36.4993Z" fill="#F0F0F3"/>
<path d="M50.3309 32.5078C50.5644 33.0417 50.6948 33.6312 50.6948 34.2514C50.6948 36.3796 49.1687 38.1509 47.1514 38.532C46.9167 38.5763 46.7258 38.7443 46.648 38.97C46.0916 40.5849 44.5598 41.7451 42.756 41.7451C42.2033 41.7451 41.6764 41.6362 41.1949 41.4386C41.8102 42.9373 43.2835 43.9929 45.0039 43.9929C46.8076 43.9929 48.3395 42.8325 48.8959 41.2178C48.9737 40.9921 49.1646 40.8241 49.3992 40.7798C51.4166 40.3987 52.9426 38.6274 52.9426 36.4991C52.9426 34.7138 51.868 33.1807 50.3309 32.5078Z" fill="#E0DDE2"/>
</svg>
