<svg width="55" height="55" viewBox="0 0 55 55" fill="none" xmlns="http://www.w3.org/2000/svg">
<path d="M29.6969 7.29374L28.3657 4.64061L22.4032 1.33124L21.0813 2.65311L24.3907 8.61561L27.0438 9.94686L40.301 23.2041L42.9541 20.55L29.6969 7.29374Z" fill="#FF6243"/>
<path d="M22.4032 3.20624L28.3657 6.51561L29.6969 9.16874L42.0166 21.4875L42.9541 20.55L29.6969 7.29374L28.3657 4.64061L22.4032 1.33124L21.0813 2.65311L21.7507 3.85874L22.4032 3.20624Z" fill="#FF5023"/>
<path d="M28.5512 20.1506C27.2319 19.9523 25.8836 20.1091 24.6451 20.6051C23.4066 21.101 22.3226 21.9181 21.5049 22.9722C20.6871 24.0263 20.1651 25.2794 19.9926 26.6023C19.8201 27.9252 20.0033 29.2702 20.5234 30.4987L25.4424 25.5797L28.7574 26.2425L29.4202 29.5575L24.5012 34.4766C25.7297 34.9966 27.0747 35.1799 28.3977 35.0073C29.7206 34.8348 30.9736 34.3128 32.0277 33.4951C33.0818 32.6773 33.8989 31.5934 34.3949 30.3549C34.8908 29.1164 35.0477 27.768 34.8493 26.4487C34.7462 25.8489 34.7858 25.2333 34.965 24.6516C35.1442 24.07 35.4578 23.5388 35.8806 23.1009L42.8509 16.125C43.2887 15.7023 43.82 15.3887 44.4016 15.2095C44.9832 15.0304 45.5989 14.9907 46.1987 15.0937C47.5173 15.2915 48.8648 15.1345 50.1025 14.6388C51.3403 14.1431 52.4237 13.3266 53.2412 12.2733C54.0588 11.22 54.581 9.96798 54.7542 8.64593C54.9273 7.32387 54.7452 5.97955 54.2265 4.75124L49.3074 9.67031L45.9924 9.00749L45.3296 5.69249L50.2487 0.773428C49.0201 0.253347 47.6751 0.0701304 46.3522 0.242644C45.0293 0.415158 43.7763 0.937168 42.7221 1.75492C41.668 2.57267 40.8509 3.65661 40.355 4.89512C39.8591 6.13364 39.7022 7.48196 39.9006 8.80124C40.0036 9.40105 39.9639 10.0167 39.7848 10.5983C39.6056 11.1799 39.292 11.7112 38.8693 12.1491L36.7131 14.3053L36.7187 14.3109L36.7131 14.3053L34.0599 16.9584L34.0656 16.9641L34.0599 16.9584L31.9037 19.1147C31.4658 19.539 30.934 19.8539 30.3514 20.0339C29.7689 20.2139 29.1521 20.2539 28.5512 20.1506Z" fill="#FF9811"/>
<path d="M54.2266 4.75125L52.7782 6.19969C52.9873 7.21105 52.9841 8.25484 52.7687 9.26489C52.5533 10.2749 52.1304 11.2292 51.5268 12.0673C50.9232 12.9053 50.1521 13.6088 49.2624 14.1332C48.3727 14.6575 47.3837 14.9913 46.3582 15.1134C47.6673 15.2827 48.9979 15.1035 50.2156 14.5939C51.4333 14.0843 52.4949 13.2623 53.2932 12.211C54.0915 11.1597 54.5982 9.91635 54.7621 8.60653C54.926 7.2967 54.7413 5.96683 54.2266 4.75125Z" fill="#EE8700"/>
<path d="M44.3238 15.0994C43.724 14.9963 43.1084 15.036 42.5267 15.2152C41.9451 15.3943 41.4139 15.7079 40.976 16.1306L34 23.1009C33.5773 23.5388 33.2637 24.07 33.0845 24.6516C32.9053 25.2333 32.8657 25.8489 32.9688 26.4488C33.1205 27.4404 33.0708 28.4524 32.8228 29.4244C32.5747 30.3963 32.1334 31.3084 31.5251 32.1061C30.9168 32.9037 30.154 33.5706 29.2823 34.067C28.4105 34.5633 27.4477 34.879 26.4513 34.995C27.6031 35.148 28.7747 35.0309 29.8734 34.6531C30.9722 34.2752 31.9679 33.647 32.782 32.818C33.5961 31.9889 34.2062 30.9819 34.564 29.8765C34.9219 28.7711 35.0177 27.5976 34.8438 26.4488C34.7407 25.8489 34.7803 25.2333 34.9595 24.6516C35.1387 24.07 35.4523 23.5388 35.875 23.1009L42.851 16.125C43.3868 15.6058 44.0685 15.2627 44.8047 15.1416C44.6444 15.1294 44.4832 15.1228 44.3238 15.0994Z" fill="#EE8700"/>
<path d="M47.7071 33.2606C48.4104 33.9639 49.3643 34.359 50.3588 34.359C51.3534 34.359 52.3073 33.9639 53.0106 33.2606C53.7138 32.5573 54.1089 31.6035 54.1089 30.6089C54.1089 29.6143 53.7138 28.6605 53.0106 27.9572L46.9299 21.8775L41.6274 27.18L47.7071 33.2606Z" fill="#005ECE"/>
<path d="M41.6274 27.18L46.9299 21.8775C47.2816 21.5259 47.4793 21.049 47.4793 20.5517C47.4794 20.0544 47.282 19.5775 46.9304 19.2258C46.5788 18.8741 46.1019 18.6764 45.6046 18.6763C45.1073 18.6762 44.6304 18.8737 44.2787 19.2253L38.9752 24.5287C38.8011 24.7029 38.6631 24.9096 38.5689 25.1371C38.4747 25.3646 38.4262 25.6084 38.4263 25.8547C38.4263 26.1009 38.4749 26.3447 38.5691 26.5722C38.6634 26.7997 38.8015 27.0064 38.9757 27.1804C39.1498 27.3545 39.3566 27.4926 39.5841 27.5868C39.8116 27.681 40.0554 27.7294 40.3016 27.7294C40.5479 27.7294 40.7917 27.6808 41.0192 27.5865C41.2467 27.4923 41.4533 27.3541 41.6274 27.18Z" fill="#004FAC"/>
<path d="M8.3125 54.1875H15.8125V51.375V40.125V37.3125H8.3125V39.1875V52.3125V54.1875Z" fill="#006DF0"/>
<path d="M0.8125 39.1875H8.3125V52.3125H0.8125V39.1875Z" fill="#004FAC"/>
<path d="M54.5125 39.5625C54.3285 39.2429 54.0834 38.9627 53.7911 38.738C53.4988 38.5132 53.1651 38.3482 52.809 38.2524C52.4529 38.1566 52.0814 38.132 51.7158 38.1798C51.3502 38.2277 50.9976 38.3471 50.6781 38.5312L40.675 44.3062H40.6703C40.5372 43.8425 40.2865 43.421 39.9426 43.0826C39.5986 42.7442 39.1731 42.5005 38.7072 42.375L24.7197 38.625C23.7969 38.3778 22.8264 38.3698 21.8997 38.6015L15.8125 40.125V51.375L18.3747 52.6565C19.1558 53.0467 20.0169 53.2498 20.89 53.25H34.9309C35.918 53.2514 36.8881 52.9927 37.7434 52.5L53.4934 43.4062C54.1382 43.0315 54.6077 42.4161 54.7988 41.6953C54.9899 40.9745 54.8869 40.2074 54.5125 39.5625Z" fill="#FFBCAB"/>
<path d="M5.5 39.1875H8.3125V52.3125H5.5V39.1875Z" fill="#00479B"/>
<path d="M40.7416 44.6025C40.7257 44.6962 40.721 44.79 40.6957 44.8837C40.6004 45.2407 40.4356 45.5754 40.2109 45.8686C39.9862 46.1619 39.7059 46.408 39.3861 46.593C39.0662 46.7779 38.713 46.898 38.3468 46.9463C37.9805 46.9947 37.6082 46.9705 37.2513 46.875L29.1691 44.7093L27.176 44.1759L26.8798 45.0337L37.2513 47.8125C37.708 47.9373 38.1889 47.9443 38.6491 47.8326C39.1092 47.721 39.5334 47.4945 39.8822 47.1742C40.2309 46.854 40.4927 46.4505 40.643 46.0015C40.7933 45.5526 40.8272 45.0728 40.7416 44.6072V44.6025Z" fill="#FF9478"/>
</svg>
