<svg width="7" height="5" viewBox="0 0 7 5" fill="none" xmlns="http://www.w3.org/2000/svg">
<path d="M3.26028 4.70767C3.28703 4.74653 3.32284 4.7783 3.3646 4.80026C3.40637 4.82221 3.45284 4.83368 3.50003 4.83368C3.54721 4.83368 3.59369 4.82221 3.63545 4.80026C3.67722 4.7783 3.71302 4.74653 3.73978 4.70767L6.36478 0.915999C6.39516 0.872266 6.41298 0.821042 6.4163 0.767893C6.41961 0.714743 6.4083 0.661702 6.38359 0.614531C6.35887 0.56736 6.32171 0.527863 6.27612 0.500333C6.23054 0.472802 6.17828 0.458291 6.12503 0.458374H0.875027C0.821898 0.458594 0.769834 0.473292 0.724434 0.500889C0.679034 0.528485 0.642016 0.567935 0.61736 0.614997C0.592704 0.662059 0.581344 0.714952 0.584501 0.767988C0.587658 0.821023 0.605213 0.872195 0.635277 0.915999L3.26028 4.70767Z" fill="white"/>
</svg>
