<svg width="14" height="9" viewBox="0 0 14 9" fill="none" xmlns="http://www.w3.org/2000/svg">
<path d="M13.6914 7.54265C13.6914 7.49127 13.64 7.49127 13.64 7.43989C13.4345 7.02886 12.9721 6.51507 12.3556 5.94991C12.0473 5.69301 11.8932 5.48749 11.7904 5.38474C11.6363 5.17922 11.6363 5.02509 11.6877 4.81957C11.739 4.66543 11.9445 4.40853 12.3042 3.94612C12.5097 3.68923 12.6125 3.5351 12.7666 3.38096C13.5373 2.35338 13.8969 1.68545 13.7942 1.37718L13.7428 1.3258C13.6914 1.27442 13.64 1.22304 13.5373 1.22304C13.4345 1.17167 13.2804 1.17167 13.1263 1.22304H11.1739C11.1225 1.22304 11.1225 1.22304 11.0197 1.22304C10.9683 1.22304 10.917 1.22304 10.917 1.22304H10.8656H10.8142L10.7628 1.27442C10.7114 1.3258 10.7114 1.3258 10.7114 1.37718C10.5059 1.94234 10.249 2.40475 9.99214 2.91854C9.838 3.17544 9.68387 3.43234 9.52973 3.63785C9.3756 3.84337 9.27283 3.9975 9.17008 4.10026C9.06732 4.20302 8.96456 4.2544 8.91318 4.35716C8.8618 4.40854 8.75905 4.45992 8.75905 4.40854C8.70767 4.40854 8.65629 4.40854 8.65629 4.35716C8.60491 4.30578 8.55353 4.2544 8.50216 4.20302C8.45078 4.15164 8.45077 4.04888 8.39939 3.94612C8.39939 3.84336 8.39939 3.74061 8.39939 3.68923C8.39939 3.63785 8.39939 3.48372 8.39939 3.38096C8.39939 3.22682 8.39939 3.12406 8.39939 3.07268C8.39939 2.91855 8.39939 2.71303 8.39939 2.50752C8.39939 2.302 8.39939 2.14786 8.39939 2.0451C8.39939 1.94235 8.39939 1.78821 8.39939 1.68545C8.39939 1.53132 8.39939 1.42855 8.39939 1.37718C8.39939 1.3258 8.34802 1.22304 8.34802 1.17166C8.29665 1.12028 8.24526 1.0689 8.19388 1.01752C8.1425 0.966145 8.03974 0.966147 7.98837 0.914768C7.73147 0.863389 7.4232 0.812012 7.06355 0.812012C6.24149 0.812012 5.67632 0.863392 5.4708 0.96615C5.36804 1.01753 5.26529 1.0689 5.21391 1.17166C5.11115 1.27442 5.11115 1.3258 5.16252 1.3258C5.41942 1.37718 5.62494 1.47993 5.7277 1.63407L5.77908 1.73683C5.83046 1.78821 5.83045 1.89097 5.88183 2.0451C5.93321 2.19924 5.93321 2.35338 5.93321 2.55889C5.93321 2.86717 5.93321 3.17544 5.93321 3.38096C5.93321 3.63785 5.88183 3.79199 5.88183 3.94612C5.88183 4.10026 5.83046 4.20302 5.77908 4.2544C5.7277 4.35716 5.72769 4.40854 5.67631 4.40854C5.67631 4.40854 5.67631 4.45991 5.62493 4.45991C5.57355 4.45991 5.52218 4.51129 5.41942 4.51129C5.36804 4.51129 5.26529 4.45992 5.21391 4.40854C5.11115 4.35716 5.00839 4.2544 4.95701 4.15164C4.85425 4.04889 4.75149 3.89474 4.64874 3.68923C4.54598 3.48371 4.39183 3.2782 4.28908 2.96993L4.18633 2.76441C4.13495 2.66166 4.03219 2.45614 3.92943 2.19924C3.82668 1.94235 3.72391 1.73683 3.62116 1.47994C3.56978 1.37718 3.5184 1.3258 3.46703 1.27442H3.41564C3.41564 1.27442 3.36426 1.22304 3.31288 1.22304C3.2615 1.22304 3.21013 1.17166 3.15875 1.17166H1.3091C1.10359 1.17166 1.00083 1.22304 0.949453 1.27442L0.898071 1.3258C0.898071 1.3258 0.898071 1.37718 0.898071 1.42856C0.898071 1.47994 0.898074 1.53131 0.949453 1.63407C1.20635 2.25062 1.51462 2.86717 1.82289 3.48372C2.13117 4.04888 2.43944 4.56267 2.64496 4.92233C2.90185 5.28198 3.10737 5.64163 3.36426 5.94991C3.62116 6.25818 3.77529 6.46369 3.82667 6.56645C3.92943 6.66921 3.9808 6.72059 4.03218 6.77197L4.18633 6.9261C4.28909 7.02886 4.44322 7.183 4.64874 7.33714C4.85425 7.49127 5.11114 7.64541 5.36804 7.79954C5.62493 7.95368 5.93321 8.05644 6.24149 8.1592C6.60114 8.26196 6.90941 8.31334 7.21768 8.26196H7.98837C8.1425 8.26196 8.24527 8.21058 8.34802 8.10782L8.39939 8.05644C8.39939 8.00506 8.45077 8.00506 8.45077 7.95368C8.45077 7.9023 8.45077 7.85093 8.45077 7.74817C8.45077 7.54265 8.45078 7.38852 8.50216 7.23438C8.55353 7.08024 8.55354 6.97749 8.60492 6.87473C8.6563 6.77197 8.70767 6.72059 8.75905 6.66921C8.81043 6.61783 8.86181 6.56645 8.86181 6.56645H8.91318C9.01594 6.51507 9.17008 6.56645 9.27284 6.66921C9.42698 6.77197 9.58111 6.92611 9.68386 7.08024C9.78662 7.23438 9.94077 7.38852 10.1463 7.59403C10.3518 7.79955 10.5059 7.95369 10.6087 8.00506L10.7628 8.10782C10.8656 8.1592 10.9683 8.21058 11.1225 8.26196C11.2766 8.31334 11.3794 8.31333 11.4821 8.31333L13.229 8.26196C13.3832 8.26196 13.5373 8.21058 13.64 8.1592C13.7428 8.10782 13.7942 8.05644 13.7942 7.95368C13.7942 7.9023 13.7942 7.79955 13.7942 7.74817C13.6914 7.64541 13.6914 7.59403 13.6914 7.54265Z" fill="#26282F"/>
</svg>
