<svg width="12" height="9" viewBox="0 0 12 9" fill="none" xmlns="http://www.w3.org/2000/svg">
<path d="M11.8512 3.70456C11.8512 3.46452 11.8112 3.18448 11.8112 2.86443C11.7712 2.54437 11.7312 2.22432 11.6912 1.94427C11.6112 1.62422 11.4912 1.38418 11.2511 1.18415C11.0511 0.984117 10.771 0.864093 10.491 0.824087C9.57084 0.704067 8.21062 0.664062 6.37032 0.664062C4.53001 0.664062 3.12977 0.704067 2.24963 0.824087C1.96958 0.864093 1.68954 0.984117 1.4895 1.18415C1.28947 1.38418 1.12944 1.62422 1.04943 1.94427C0.969415 2.22432 0.929413 2.50437 0.929413 2.86443C0.889407 3.18448 0.889404 3.46452 0.889404 3.70456C0.889404 3.9446 0.889404 4.22465 0.889404 4.62472C0.889404 5.02478 0.889404 5.34484 0.889404 5.54487C0.889404 5.78491 0.929413 6.06496 0.929413 6.38501C0.96942 6.70506 1.00942 7.02511 1.04943 7.30516C1.12944 7.62521 1.24946 7.86526 1.4895 8.06529C1.68954 8.26532 1.96958 8.38534 2.24963 8.42535C3.16978 8.54537 4.53001 8.58538 6.37032 8.58538C8.21062 8.58538 9.61085 8.54537 10.491 8.42535C10.771 8.38534 11.0511 8.26532 11.2511 8.06529C11.4511 7.86526 11.6112 7.62521 11.6912 7.30516C11.7712 7.02511 11.8112 6.74507 11.8112 6.38501C11.8512 6.06496 11.8512 5.78491 11.8512 5.54487C11.8512 5.30483 11.8512 5.02478 11.8512 4.62472C11.8512 4.22465 11.8512 3.9046 11.8512 3.70456ZM8.49066 4.94477L5.33014 6.90509C5.29014 6.9451 5.21012 6.98511 5.13011 6.98511C5.0501 6.98511 5.01009 6.98511 4.93008 6.9451C4.81006 6.86509 4.73004 6.74507 4.73004 6.58504V2.62438C4.73004 2.46436 4.81006 2.34434 4.93008 2.26433C5.0501 2.18431 5.21012 2.18431 5.33014 2.26433L8.49066 4.22465C8.61068 4.30466 8.6907 4.42468 8.6907 4.5447C8.6907 4.66472 8.61068 4.86476 8.49066 4.94477Z" fill="#26282F"/>
</svg>
