<svg width="15" height="15" viewBox="0 0 15 15" fill="none" xmlns="http://www.w3.org/2000/svg">
<path d="M12.9727 3.37207L11.4126 1.81348C11.3025 1.70294 11.1717 1.61525 11.0277 1.55542C10.8837 1.49559 10.7292 1.46481 10.5732 1.46484C10.2554 1.46484 9.95654 1.58936 9.73242 1.81348L8.05371 3.49219C7.94318 3.60224 7.85548 3.73304 7.79565 3.87708C7.73582 4.02112 7.70504 4.17557 7.70508 4.33154C7.70508 4.64941 7.82959 4.94824 8.05371 5.17236L9.28125 6.3999C8.99391 7.03324 8.59442 7.60941 8.10205 8.10059C7.61092 8.59415 7.03481 8.9951 6.40137 9.28418L5.17383 8.05664C5.06378 7.94611 4.93298 7.85841 4.78893 7.79858C4.64489 7.73875 4.49045 7.70797 4.33447 7.70801C4.0166 7.70801 3.71777 7.83252 3.49365 8.05664L1.81348 9.73389C1.70281 9.84414 1.61503 9.97518 1.5552 10.1195C1.49537 10.2638 1.46466 10.4185 1.46484 10.5747C1.46484 10.8926 1.58936 11.1914 1.81348 11.4155L3.37061 12.9727C3.72803 13.3315 4.22168 13.5352 4.72852 13.5352C4.83545 13.5352 4.93799 13.5264 5.03906 13.5088C7.01367 13.1836 8.97217 12.1333 10.5527 10.5542C12.1318 8.97656 13.1807 7.01953 13.5103 5.03906C13.6099 4.43408 13.4092 3.81152 12.9727 3.37207Z" fill="#26282F"/>
</svg>
