<?xml version="1.0" encoding="iso-8859-1"?>
<?xml-stylesheet type="text/css" href="../css/fr-svg-include.css" ?>

<svg xmlns="http://www.w3.org/2000/svg" xmlns:xlink="http://www.w3.org/1999/xlink">

    <symbol id="menu-button__icon" viewBox="0 0 35 19">
        <rect x="0.600098" y="0.555542" width="34.1556" height="3.53333" rx="1"/>
        <rect x="2.95557" y="7.62219" width="28.2667" height="3.53333" rx="1"/>
        <rect x="6.48877" y="14.6888" width="22.3778" height="3.53333" rx="1"/>
    </symbol>

    <symbol id="get-there__icon" viewBox="0 0 13 17">
        <path d="M6.5 7.3125C7.15584 7.3125 7.6875 6.78084 7.6875 6.125C7.6875 5.46916 7.15584 4.9375 6.5 4.9375C5.84416 4.9375 5.3125 5.46916 5.3125 6.125C5.3125 6.78084 5.84416 7.3125 6.5 7.3125Z"/>
        <path d="M6.5 0.1875C3.22621 0.1875 0.5625 2.73506 0.5625 5.86524C0.5625 7.35592 1.24197 9.3383 2.58199 11.7575C3.65816 13.6998 4.90318 15.4562 5.55074 16.3301C5.66016 16.4794 5.80323 16.6008 5.96835 16.6846C6.13347 16.7683 6.31599 16.8119 6.50111 16.8119C6.68624 16.8119 6.86876 16.7683 7.03387 16.6846C7.19899 16.6008 7.34206 16.4794 7.45148 16.3301C8.09793 15.4562 9.34406 13.6998 10.4202 11.7575C11.758 9.33904 12.4375 7.35666 12.4375 5.86524C12.4375 2.73506 9.77379 0.1875 6.5 0.1875ZM6.5 8.5C6.03027 8.5 5.57109 8.36071 5.18052 8.09974C4.78995 7.83877 4.48554 7.46785 4.30579 7.03387C4.12603 6.5999 4.07899 6.12237 4.17063 5.66166C4.26227 5.20096 4.48847 4.77777 4.82062 4.44562C5.15277 4.11347 5.57596 3.88728 6.03666 3.79564C6.49737 3.704 6.9749 3.75103 7.40887 3.93079C7.84285 4.11054 8.21377 4.41496 8.47474 4.80552C8.73571 5.19609 8.875 5.65527 8.875 6.125C8.87431 6.75468 8.62387 7.35837 8.17862 7.80362C7.73337 8.24887 7.12968 8.49931 6.5 8.5Z"/>
    </symbol>

    <symbol id="get-there__triangle" viewBox="0 0 7 5">
        <path d="M3.26028 4.70767C3.28703 4.74653 3.32284 4.7783 3.3646 4.80026C3.40637 4.82221 3.45284 4.83368 3.50003 4.83368C3.54721 4.83368 3.59369 4.82221 3.63545 4.80026C3.67722 4.7783 3.71302 4.74653 3.73978 4.70767L6.36478 0.915999C6.39516 0.872266 6.41298 0.821042 6.4163 0.767893C6.41961 0.714743 6.4083 0.661702 6.38359 0.614531C6.35887 0.56736 6.32171 0.527863 6.27612 0.500333C6.23054 0.472802 6.17828 0.458291 6.12503 0.458374H0.875027C0.821898 0.458594 0.769834 0.473292 0.724434 0.500889C0.679034 0.528485 0.642016 0.567935 0.61736 0.614997C0.592704 0.662059 0.581344 0.714952 0.584501 0.767988C0.587658 0.821023 0.605213 0.872195 0.635277 0.915999L3.26028 4.70767Z"/>
    </symbol>

    <symbol id="header-contacts__icon-email" viewBox="0 0 20 16">
        <path d="M18 0H2C0.9 0 0.00999999 0.9 0.00999999 2L0 14C0 15.1 0.9 16 2 16H18C19.1 16 20 15.1 20 14V2C20 0.9 19.1 0 18 0ZM18 4L10 9L2 4V2L10 7L18 2V4Z"/>
    </symbol>

    <symbol id="header-contacts__icon-phone" viewBox="0 0 16 16">
        <path d="M15.5434 11.3078L12.0434 9.80779C11.8939 9.74407 11.7277 9.73065 11.5699 9.76954C11.4121 9.80842 11.2712 9.89752 11.1684 10.0234L9.61844 11.9172C7.18586 10.7702 5.22819 8.81256 4.08125 6.37998L5.975 4.82998C6.10115 4.72738 6.19044 4.58648 6.22934 4.42859C6.26825 4.27071 6.25466 4.10445 6.19063 3.95498L4.69063 0.454985C4.62035 0.293863 4.49605 0.162312 4.33917 0.083016C4.18229 0.00372016 4.00266 -0.0183503 3.83125 0.0206102L0.58125 0.77061C0.41599 0.808772 0.268545 0.901822 0.16298 1.03457C0.0574141 1.16733 -3.80691e-05 1.33194 1.89256e-08 1.50155C1.89256e-08 9.51717 6.49687 16.0015 14.5 16.0015C14.6697 16.0017 14.8343 15.9442 14.9672 15.8387C15.1 15.7331 15.1931 15.5856 15.2312 15.4203L15.9812 12.1703C16.02 11.998 15.9974 11.8177 15.9175 11.6603C15.8376 11.5029 15.7053 11.3782 15.5434 11.3078Z"/>
    </symbol>

    <symbol id="advantages-icon-01" viewBox="0 0 41 59">
        <path d="M40.1236 7.16687L33.21 0.253054C33.048 0.091035 32.8281 0 32.5989 0H1.4873C1.01 0 0.623047 0.386841 0.623047 0.864256V53.1201C0.623047 53.5974 1.01 53.9843 1.4873 53.9843H39.5125C39.9898 53.9843 40.3768 53.5974 40.3768 53.1201V7.77808C40.3768 7.54888 40.2857 7.32912 40.1236 7.16687Z" fill="#E6E9ED"/>
        <path d="M16.5852 17.8614C16.5844 17.8614 16.5837 17.8614 16.5829 17.8614H8.40152C8.15734 17.8614 7.92457 17.7582 7.76071 17.577C7.59684 17.396 7.51721 17.1541 7.54153 16.9111L8.23305 9.99705C8.2773 9.55524 8.64904 9.21887 9.09304 9.21887H16.0069C16.4564 9.21887 16.8308 9.56342 16.8681 10.0113L17.4389 16.8611C17.4459 16.9055 17.4495 16.9509 17.4495 16.9972C17.4495 17.4745 17.0625 17.8614 16.5852 17.8614Z" fill="#ED5565"/>
        <path d="M12.55 5.76172C11.1203 5.76172 9.95728 6.92478 9.95728 8.35449V10.0831C9.95728 10.5604 10.3442 10.9474 10.8215 10.9474C11.2988 10.9474 11.6858 10.5604 11.6858 10.0831V8.35449C11.6858 7.87788 12.0734 7.49023 12.55 7.49023C13.0266 7.49023 13.4143 7.87788 13.4143 8.35449V10.0831C13.4143 10.5604 13.8013 10.9474 14.2786 10.9474C14.7559 10.9474 15.1428 10.5604 15.1428 10.0831V8.35449C15.1428 6.92478 13.9797 5.76172 12.55 5.76172Z" fill="#515760"/>
        <path d="M33.21 0.253058C33.1181 0.161216 33.0073 0.0929975 32.8871 0.0504761V6.62562C32.8871 7.10292 33.274 7.48988 33.7513 7.48988H40.3263C40.2836 7.36969 40.2155 7.25883 40.1237 7.16688L33.21 0.253058Z" fill="#F5F7FA"/>
        <path d="M32.5989 26.3302H8.40112C7.92382 26.3302 7.53687 25.9432 7.53687 25.4659C7.53687 24.9885 7.92382 24.6017 8.40112 24.6017H32.5989C33.0762 24.6017 33.4632 24.9885 33.4632 25.4659C33.4632 25.9432 33.0762 26.3302 32.5989 26.3302Z" fill="#656D78"/>
        <path d="M32.5989 30.9406H8.40112C7.92382 30.9406 7.53687 30.5536 7.53687 30.0764C7.53687 29.5989 7.92382 29.2121 8.40112 29.2121H32.5989C33.0762 29.2121 33.4632 29.5989 33.4632 30.0764C33.4632 30.5536 33.0762 30.9406 32.5989 30.9406Z" fill="#656D78"/>
        <path d="M32.5989 35.5499H8.40112C7.92382 35.5499 7.53687 35.1629 7.53687 34.6856C7.53687 34.2082 7.92382 33.8214 8.40112 33.8214H32.5989C33.0762 33.8214 33.4632 34.2082 33.4632 34.6856C33.4632 35.1629 33.0762 35.5499 32.5989 35.5499Z" fill="#656D78"/>
        <path d="M18.7715 40.1592H8.40112C7.92382 40.1592 7.53687 39.7723 7.53687 39.295C7.53687 38.8176 7.92382 38.4307 8.40112 38.4307H18.7715C19.2488 38.4307 19.6358 38.8176 19.6358 39.295C19.6358 39.7723 19.2488 40.1592 18.7715 40.1592Z" fill="#656D78"/>
        <path d="M36.8691 7.49023C36.9015 7.58196 36.9196 7.67899 36.9196 7.77809V53.1201C36.9196 53.5974 36.5326 53.9844 36.0553 53.9844H39.5127C39.99 53.9844 40.3769 53.5974 40.3769 53.1201V7.77809C40.3769 7.67899 40.3589 7.58196 40.3264 7.49023H36.8691Z" fill="#DADDE1"/>
        <path d="M27.4148 52.8351C24.0789 52.8351 21.365 50.1211 21.365 46.7853C21.365 43.4494 24.0789 40.7355 27.4148 40.7355C30.7507 40.7355 33.4646 43.4494 33.4646 46.7853C33.4646 50.1211 30.7507 52.8351 27.4148 52.8351Z" fill="#ED5565"/>
        <path d="M27.4148 52.8351C26.0015 52.8351 24.7009 52.3466 23.6699 51.5313V58.1356C23.6699 58.1448 23.671 58.1537 23.6713 58.1628C23.6719 58.1804 23.6723 58.1981 23.674 58.2156C23.6751 58.2279 23.6771 58.2401 23.6787 58.2522C23.6808 58.2681 23.6829 58.2838 23.6859 58.2995C23.6885 58.3126 23.6918 58.3255 23.6949 58.3384C23.6984 58.3528 23.7017 58.3671 23.706 58.3814C23.71 58.3949 23.7147 58.4081 23.7195 58.4215C23.7241 58.4346 23.7286 58.4479 23.7339 58.4609C23.7395 58.4747 23.7459 58.488 23.7522 58.5016C23.7578 58.5136 23.7633 58.5257 23.7695 58.5376C23.777 58.5516 23.7852 58.5652 23.7933 58.5788C23.7997 58.5895 23.8058 58.6002 23.8126 58.6105C23.8221 58.625 23.8326 58.6388 23.843 58.6528C23.8486 58.6602 23.8535 58.6681 23.8594 58.6755C23.8605 58.677 23.8619 58.678 23.8631 58.6795C23.8824 58.7035 23.9029 58.7264 23.9247 58.7482C23.9308 58.7543 23.9375 58.7596 23.9438 58.7655C23.9596 58.7804 23.9758 58.7949 23.9927 58.8085C24.0028 58.8166 24.0133 58.8241 24.0238 58.8317C24.038 58.8421 24.0522 58.8523 24.0668 58.8617C24.0779 58.869 24.089 58.8755 24.1004 58.8822C24.1158 58.8911 24.1314 58.8995 24.1473 58.9076C24.1582 58.913 24.169 58.9184 24.1802 58.9234C24.1978 58.9313 24.2159 58.9385 24.2341 58.9451C24.244 58.9488 24.2538 58.9527 24.2638 58.9561C24.2842 58.9629 24.3052 58.9683 24.3263 58.9736C24.3347 58.9757 24.343 58.9782 24.3514 58.9801C24.3747 58.9851 24.3984 58.9887 24.4224 58.9918C24.4291 58.9927 24.4357 58.9942 24.4423 58.9948C24.4706 58.9978 24.4993 58.9993 24.5283 58.9995C24.5305 58.9995 24.5327 58.9999 24.5349 58.9999C24.5358 58.9999 24.5366 58.9996 24.5375 58.9996C24.5797 58.9995 24.6208 58.9955 24.6613 58.9895C24.67 58.9881 24.6786 58.9871 24.6873 58.9855C24.7285 58.9782 24.7684 58.9682 24.8073 58.9552C24.8144 58.9527 24.8213 58.95 24.8284 58.9474C24.8697 58.9325 24.9101 58.9153 24.9483 58.8943C24.9497 58.8935 24.951 58.8926 24.9524 58.8919C24.9927 58.8697 25.0306 58.844 25.0666 58.8157C25.0691 58.8138 25.0719 58.8125 25.0744 58.8105L27.4153 56.9378L29.756 58.8105C29.7586 58.8125 29.7612 58.8137 29.7637 58.8156C29.7998 58.8438 29.8377 58.8697 29.878 58.892C29.8794 58.8927 29.8807 58.8936 29.8821 58.8944C29.9202 58.9154 29.9607 58.9326 30.002 58.9476C30.0091 58.9501 30.016 58.953 30.023 58.9553C30.0618 58.9681 30.102 58.9782 30.143 58.9856C30.1516 58.9872 30.1603 58.9882 30.169 58.9896C30.2095 58.9956 30.2505 58.9996 30.2927 58.9998C30.2936 58.9998 30.2945 59 30.2954 59C30.2974 59 30.2993 58.9998 30.3013 58.9996C30.3306 58.9995 30.3595 58.9979 30.3881 58.9949C30.3944 58.9942 30.4006 58.9928 30.4071 58.9922C30.4313 58.989 30.4555 58.9852 30.479 58.9802C30.4872 58.9783 30.4951 58.9759 30.5032 58.9738C30.5246 58.9685 30.5459 58.9629 30.5667 58.9561C30.5764 58.953 30.5859 58.9491 30.5955 58.9455C30.6142 58.9386 30.6325 58.9314 30.6505 58.9234C30.6613 58.9185 30.672 58.9132 30.6826 58.9079C30.6987 58.8998 30.7147 58.8912 30.7302 58.8821C30.7414 58.8756 30.7524 58.8691 30.7635 58.8619C30.7783 58.8524 30.7927 58.8422 30.8068 58.8317C30.8172 58.8241 30.8277 58.8168 30.8377 58.8087C30.8547 58.795 30.8709 58.7804 30.8868 58.7654C30.893 58.7595 30.8995 58.7543 30.9056 58.7483C30.9274 58.7267 30.948 58.7036 30.9674 58.6796C30.9685 58.6781 30.9699 58.6771 30.971 58.6756C30.9769 58.6683 30.9816 58.6605 30.9873 58.6531C30.9978 58.6392 31.0083 58.6252 31.0179 58.6106C31.0247 58.6002 31.0307 58.5895 31.0372 58.579C31.0454 58.5653 31.0537 58.5517 31.0612 58.5376C31.0674 58.5258 31.0728 58.5138 31.0783 58.5018C31.0847 58.4883 31.091 58.475 31.0967 58.461C31.102 58.448 31.1064 58.4348 31.1111 58.4216C31.1158 58.4084 31.1205 58.3951 31.1245 58.3815C31.1288 58.3672 31.1321 58.3528 31.1356 58.3384C31.1387 58.3256 31.1421 58.3127 31.1446 58.2996C31.1476 58.2838 31.1497 58.268 31.1518 58.2522C31.1535 58.2401 31.1554 58.228 31.1566 58.2157C31.1582 58.1982 31.1586 58.1804 31.1592 58.1628C31.1596 58.1537 31.1606 58.1448 31.1606 58.1356L31.1604 51.5314C30.1288 52.3466 28.8281 52.8351 27.4148 52.8351Z" fill="#DA4453"/>
        <path d="M27.4149 49.378C25.9852 49.378 24.8221 48.2148 24.8221 46.7852C24.8221 45.3555 25.9852 44.1924 27.4149 44.1924C28.8446 44.1924 30.0077 45.3555 30.0077 46.7852C30.0077 48.2148 28.8446 49.378 27.4149 49.378Z" fill="#DA4453"/>
    </symbol>

    <symbol id="advantages-icon-02" viewBox="0 0 52 52">
        <path d="M8.55668 1.59835L14.1944 7.23598C14.9102 7.9518 14.9102 9.11225 14.1944 9.82806L10.0035 14.0189C9.28773 14.7348 8.12728 14.7348 7.41146 14.0189L1.77373 8.38131C1.38759 7.99516 0.730781 8.17371 0.587882 8.70072C-0.482384 12.648 0.529788 17.0417 3.62907 20.141C7.00196 23.5138 11.9076 24.4147 16.1029 22.8501L40.5017 49.5308C43.0069 52.2703 47.2913 52.366 49.9164 49.741C52.5539 47.1035 52.4429 42.7945 49.6732 40.2963L22.9316 16.1764C24.6269 11.9278 23.7561 6.89331 20.3165 3.45359C17.2172 0.354312 12.8234 -0.65786 8.8761 0.412406C8.34909 0.555304 8.17054 1.21221 8.55668 1.59835ZM47.1226 45.089C47.1226 46.167 46.2488 47.0409 45.1708 47.0409C44.0928 47.0409 43.219 46.167 43.219 45.089C43.219 44.0111 44.0928 43.1372 45.1708 43.1372C46.2488 43.1372 47.1226 44.0111 47.1226 45.089Z" fill="#605F6D"/>
        <path d="M20.7098 13.7178L23.0596 15.8374C24.5779 11.6622 23.665 6.80235 20.3163 3.45363C20.065 3.20227 19.8042 2.96634 19.5367 2.74249C21.7455 6.01189 22.1362 10.1429 20.7098 13.7178Z" fill="#53515E"/>
        <path d="M38.2618 47.0815L40.5016 49.5307C43.0068 52.2702 47.2912 52.3659 49.9163 49.7409C52.5538 47.1034 52.4428 42.7943 49.6731 40.2962L48.7641 39.4764C50.159 41.9498 49.819 45.1581 47.6947 47.2824C45.0696 49.9072 40.7671 49.8211 38.2618 47.0815Z" fill="#53515E"/>
        <path d="M16.1029 22.85L13.8812 20.3915C9.99908 21.8394 5.50951 21.1744 2.18811 18.3946C2.60411 19.0103 3.08389 19.5959 3.62898 20.141C7.00187 23.5138 11.9076 24.4147 16.1029 22.85Z" fill="#53515E"/>
        <path d="M31.0622 23.51L28.988 25.5842L27.5987 24.1948C26.7377 23.3339 25.3418 23.3339 24.4809 24.1948L22.5825 26.0933C23.0605 27.3246 23.0586 28.6992 22.5763 29.9292L27.1663 34.9485C28.17 34.4807 29.2905 34.3463 30.3614 34.5456C30.9985 34.6642 31.653 34.4624 32.1112 34.0042L33.2006 32.9147C34.0616 32.0538 34.0616 30.658 33.2006 29.797C32.4333 29.0297 32.4333 27.7856 33.2006 27.0183L34.0309 26.1879L31.0622 23.51Z" fill="#53515E"/>
        <path d="M51.548 6.46805L47.9804 2.90047C47.6372 2.55729 47.0598 2.64453 46.8333 3.07373L44.9128 6.71241L27.3628 24.2622L30.1861 27.0855L47.7361 9.53575L51.3748 7.6151C51.804 7.38861 51.8911 6.81123 51.548 6.46805Z" fill="#E9EBF2"/>
        <path d="M51.548 6.46798L50.6473 5.56732C50.7104 5.86805 50.5781 6.1963 50.2789 6.35413L46.6402 8.27478L29.0903 25.8246L27.4454 24.1797L27.3629 24.2621L30.1862 27.0855L47.7361 9.53568L51.3748 7.61503C51.804 7.38854 51.8912 6.81116 51.548 6.46798Z" fill="#C7CAD3"/>
        <path d="M24.2228 34.4964C25.746 32.9733 27.9694 32.5794 29.8562 33.312L31.7546 31.4136C32.6156 30.5526 32.6156 29.1568 31.7546 28.2958L26.1525 22.6937C25.2916 21.8328 23.8957 21.8328 23.0349 22.6937L21.1365 24.5921C21.869 26.479 21.4751 28.7024 19.952 30.2255C18.429 31.7486 16.2055 32.1425 14.3187 31.4099L4.25445 41.4742C1.8465 43.8821 1.8465 47.7861 4.25445 50.194C6.66239 52.602 10.5663 52.602 12.9743 50.194L23.0385 40.1298C22.3058 38.2431 22.6997 36.0196 24.2228 34.4964Z" fill="#FFDC64"/>
        <path d="M31.7547 28.2958L30.43 26.9711C30.6155 27.7001 30.4255 28.505 29.855 29.0755L27.9566 30.9739C26.0699 30.2413 23.8464 30.6353 22.3233 32.1583C20.8001 33.6815 20.4062 35.9049 21.1388 37.7917L11.0746 47.8559C8.8777 50.0528 5.43615 50.2443 3.021 48.4325C3.31725 49.0703 3.72838 49.6678 4.25447 50.194C6.66242 52.6019 10.5664 52.6019 12.9743 50.194L23.0386 40.1298C22.306 38.2429 22.7 36.0195 24.223 34.4964C25.7461 32.9733 27.9695 32.5794 29.8563 33.312L31.7548 31.4136C32.6156 30.5526 32.6156 29.1568 31.7547 28.2958Z" fill="#FFC850"/>
        <path d="M7.81816 44.6455C7.60783 44.6455 7.39749 44.5652 7.23692 44.4048C6.91598 44.0837 6.91598 43.5633 7.23692 43.2423L15.0234 35.4558C15.3445 35.1349 15.8649 35.1349 16.1859 35.4558C16.5068 35.7768 16.5068 36.2972 16.1859 36.6183L8.3994 44.4048C8.23883 44.5652 8.0284 44.6455 7.81816 44.6455Z" fill="#FF6B5C"/>
        <path d="M10.6951 47.5224C10.4848 47.5224 10.2744 47.4422 10.1139 47.2817C9.79293 46.9607 9.79293 46.4403 10.1139 46.1192L17.9004 38.3327C18.2214 38.0119 18.7418 38.0119 19.0629 38.3327C19.3838 38.6538 19.3838 39.1742 19.0629 39.4952L11.2764 47.2817C11.1158 47.4422 10.9053 47.5224 10.6951 47.5224Z" fill="#FF6B5C"/>
    </symbol>

    <symbol id="advantages-icon-03" viewBox="0 0 58 57">
        <path d="M1.71595 56.9422H9.42789C9.91997 56.9422 10.3189 56.5432 10.3189 56.0512V53.4073L10.9771 52.4617V33.5048L10.3189 32.7581V29.9408C10.3189 29.4487 9.91997 29.0498 9.42789 29.0498H1.71595C1.22386 29.0498 0.824951 29.4487 0.824951 29.9408V56.0513C0.824951 56.5432 1.22386 56.9422 1.71595 56.9422Z" fill="#8AC9FE"/>
        <path d="M55.5187 5.98149L43.8365 1.11449C42.7913 0.678796 41.6038 0.678796 40.5586 1.11449L28.8763 5.98149C27.373 6.60811 26.4001 8.03116 26.4001 9.6044V30.5479L26.4041 51.8153V51.8166C26.487 53.9268 28.2958 55.6132 30.5154 55.6132H53.8798C56.1534 55.6132 57.9951 53.8452 57.9951 51.6638V9.60427C57.9949 8.03116 57.0221 6.60811 55.5187 5.98149ZM41.9988 12.8059C40.472 12.8059 39.2344 11.5682 39.2344 10.0415C39.2344 8.51484 40.4721 7.27712 41.9988 7.27712C43.5256 7.27712 44.7632 8.51484 44.7632 10.0415C44.7632 11.5682 43.5256 12.8059 41.9988 12.8059Z" fill="#FEDBA6"/>
        <path d="M35.619 51.8163V51.815L35.6185 49.3023C36.3706 48.1655 36.8099 46.8046 36.8099 45.3423C36.8099 44.5748 36.6892 43.835 36.4656 43.1407C37.3598 41.9415 37.8895 40.4554 37.8895 38.8478C37.8895 38.087 37.771 37.3537 37.5512 36.6648C38.4539 35.4622 38.9891 33.9692 38.9891 32.3532C38.9891 29.7889 37.6399 27.5349 35.6151 26.26V9.60416C35.6151 8.03104 36.5879 6.60787 38.0913 5.98124L46.8049 2.35044L43.8363 1.11425C42.791 0.678551 41.6036 0.678551 40.5583 1.11425L28.8761 5.98124C27.3727 6.60787 26.3999 8.03091 26.3999 9.60416V25.1567V30.5476V30.5479L26.4038 51.8153V51.8164V51.8167C26.4867 53.927 28.2956 55.6133 30.5152 55.6133H34.4197C34.4197 55.6132 34.4199 55.6132 34.4199 55.6131H39.7303C37.5107 55.613 35.702 53.9266 35.619 51.8163Z" fill="#FECE85"/>
        <path d="M34.6733 49.5895H36.2969C38.0904 49.5895 39.5442 51.0434 39.5442 52.8368C39.5442 54.6302 38.0904 56.0841 36.2969 56.0841H18.8803C18.0032 56.0841 17.1544 55.787 16.4584 55.2533C14.6226 53.8457 12.68 53.5476 10.3188 53.4073V32.7581C15.8718 26.4134 22.9087 25.8174 22.4163 16.3364C22.3311 14.6958 23.6383 13.3184 25.2812 13.3184C26.5378 13.3184 27.6551 14.134 28.0216 15.3358C29.512 20.2209 29.8847 25.0691 27.9173 30.106H39.7926C41.586 30.106 43.0399 31.5598 43.0399 33.3533C43.0399 35.1467 41.586 36.6006 39.7926 36.6006H35.7529H38.693C40.4864 36.6006 41.9402 38.0544 41.9402 39.8479C41.9402 41.6413 40.4864 43.0952 38.693 43.0952H35.7529H37.6134C39.4069 43.0952 40.8607 44.549 40.8607 46.3425C40.8607 48.1359 39.4069 49.5898 37.6134 49.5898H34.6733V49.5895Z" fill="#FFF3DE"/>
        <path d="M34.6733 49.5895H36.2969C38.0904 49.5895 39.5442 51.0434 39.5442 52.8368C39.5442 54.6302 38.0904 56.0841 36.2969 56.0841H18.8803C18.0032 56.0841 17.1544 55.787 16.4584 55.2533C14.6226 53.8457 12.68 53.5476 10.3188 53.4073V32.7581C15.8718 26.4134 22.9087 25.8174 22.4163 16.3364C22.3311 14.6958 23.6383 13.3184 25.2812 13.3184C26.5378 13.3184 27.6551 14.134 28.0216 15.3358C29.512 20.2209 29.8847 25.0691 27.9173 30.106H39.7926C41.586 30.106 43.0399 31.5598 43.0399 33.3533C43.0399 35.1467 41.586 36.6006 39.7926 36.6006H35.7529H38.693C40.4864 36.6006 41.9402 38.0544 41.9402 39.8479C41.9402 41.6413 40.4864 43.0952 38.693 43.0952H35.7529H37.6134C39.4069 43.0952 40.8607 44.549 40.8607 46.3425C40.8607 48.1359 39.4069 49.5898 37.6134 49.5898H34.6733V49.5895Z" fill="#FFF3DE"/>
        <path d="M29.2198 24.3427C27.0585 26.8619 23.7749 28.5104 20.7319 31.4936C19.9698 32.2407 19.5346 33.2596 19.5346 34.3269V49.9091C19.5346 51.7443 20.7755 53.3685 22.5606 53.7948C24.0137 54.1418 25.3278 54.7905 26.6146 56.0837H18.8804C18.0035 56.0837 17.155 55.7868 16.459 55.2535C14.6232 53.8463 12.6802 53.5478 10.3195 53.4074V32.7588C15.8762 26.4095 22.9193 25.8172 22.4151 16.3162C22.3296 14.6838 23.6459 13.3187 25.281 13.3187C25.9089 13.3187 26.504 13.5227 26.9859 13.8768C27.4677 14.2309 27.839 14.7338 28.022 15.3354C28.9367 18.3343 29.4304 21.3188 29.2198 24.3427Z" fill="#FFE5C2"/>
        <path d="M42.8279 24.125H40.3246V24.9375H42.8279C43.0626 24.9375 43.2603 25.0179 43.4211 25.1787C43.5819 25.3395 43.6623 25.5321 43.6623 25.7563C43.6623 25.9806 43.5819 26.1711 43.4211 26.3276C43.2603 26.4842 43.0626 26.5625 42.8279 26.5625H40.3246V28.1875C40.3246 28.416 40.2442 28.6086 40.0834 28.7651C39.9226 28.9217 39.7271 29 39.4967 29C39.2664 29 39.0708 28.9217 38.91 28.7651C38.7492 28.6086 38.6688 28.416 38.6688 28.1875V26.5625H37.8344C37.5997 26.5625 37.402 26.4842 37.2412 26.3276C37.0804 26.1711 37 25.9806 37 25.7563C37 25.5321 37.0804 25.3395 37.2412 25.1787C37.402 25.0179 37.5997 24.9375 37.8344 24.9375H38.6688V24.125H37.8344C37.5997 24.125 37.402 24.0467 37.2412 23.8901C37.0804 23.7336 37 23.5431 37 23.3188C37 23.0946 37.0804 22.902 37.2412 22.7412C37.402 22.5804 37.5997 22.5 37.8344 22.5H38.6688V16.8125C38.6688 16.5924 38.7492 16.402 38.91 16.2412C39.0708 16.0804 39.2642 16 39.4902 16H42.8279C43.5841 16 44.2838 16.182 44.927 16.5459C45.5702 16.9098 46.0765 17.4028 46.4459 18.0249C46.8153 18.647 47 19.3262 47 20.0625C47 20.7988 46.8153 21.478 46.4459 22.1001C46.0765 22.7222 45.5702 23.2152 44.927 23.5791C44.2838 23.943 43.5841 24.125 42.8279 24.125ZM42.8279 17.625H40.3246V22.5H42.8279C43.5233 22.5 44.1143 22.2609 44.601 21.7827C45.0878 21.3045 45.3312 20.729 45.3312 20.0562C45.3312 19.3833 45.0878 18.8099 44.601 18.3359C44.1143 17.862 43.5233 17.625 42.8279 17.625Z" fill="#26282F"/>
    </symbol>

    <symbol id="advantages-icon-04" viewBox="0 0 45 51">
        <path d="M36.6031 14.7831V41.8719C36.6031 44.1391 34.7651 45.977 32.498 45.977H4.2755C2.00836 45.977 0.17041 44.1391 0.17041 41.8719V4.10509C0.17041 1.83795 2.00836 0 4.2755 0H21.845C22.3116 0 22.7673 0.105911 23.1799 0.304392C23.4903 0.453715 36.1746 13.1748 36.3254 13.5052C36.5066 13.9027 36.6031 14.338 36.6031 14.7831Z" fill="#F9F8F9"/>
        <path d="M36.6031 14.7835V16.5887H25.8971C22.6694 16.5887 20.0432 13.9594 20.0432 10.7287V0H21.8453C22.2912 0 22.7272 0.0968801 23.1253 0.279044C23.4566 0.430624 36.1818 13.1849 36.333 13.5218C36.5094 13.9147 36.6031 14.3442 36.6031 14.7835Z" fill="#E3E0E4"/>
        <path d="M7.35432 45.977H4.2755C2.00846 45.977 0.17041 44.139 0.17041 41.8719V4.10509C0.17041 1.83805 2.00846 0 4.2755 0H7.35432C5.08728 0 3.24923 1.83805 3.24923 4.10509V41.8719C3.24923 44.139 5.08728 45.977 7.35432 45.977Z" fill="#E3E0E4"/>
        <path d="M18.7572 15.394H6.06218C5.6371 15.394 5.29248 15.0494 5.29248 14.6243C5.29248 14.1992 5.6371 13.8546 6.06218 13.8546H18.7572C19.1823 13.8546 19.5269 14.1992 19.5269 14.6243C19.5269 15.0494 19.1823 15.394 18.7572 15.394Z" fill="#A29AA5"/>
        <path d="M18.7572 33.8669H6.06218C5.6371 33.8669 5.29248 33.5223 5.29248 33.0972C5.29248 32.6721 5.6371 32.3275 6.06218 32.3275H18.7572C19.1823 32.3275 19.5269 32.6721 19.5269 33.0972C19.5269 33.5223 19.1823 33.8669 18.7572 33.8669Z" fill="#A29AA5"/>
        <path d="M28.8454 21.5517H5.85686C5.43178 21.5517 5.08716 21.2071 5.08716 20.782C5.08716 20.3569 5.43178 20.0123 5.85686 20.0123H28.8454C29.2705 20.0123 29.6151 20.3569 29.6151 20.782C29.6151 21.2071 29.2705 21.5517 28.8454 21.5517Z" fill="#A29AA5"/>
        <path d="M36.3271 13.5098H25.8971C24.3649 13.5098 23.1221 12.2639 23.1221 10.7286V0.279114C23.4546 0.42895 23.7614 0.640362 24.0242 0.904114L35.7042 12.6088C35.9659 12.8715 36.1773 13.1773 36.3271 13.5098Z" fill="#A29AA5"/>
        <path d="M23.714 27.7093H5.85686C5.43178 27.7093 5.08716 27.3648 5.08716 26.9396C5.08716 26.5144 5.43178 26.1699 5.85686 26.1699H23.714C24.1391 26.1699 24.4837 26.5144 24.4837 26.9396C24.4837 27.3648 24.1391 27.7093 23.714 27.7093Z" fill="#A29AA5"/>
        <path d="M39.2467 49.6575L32.9729 41.7027L35.5932 39.1523L43.4883 45.4119C45.3021 46.7708 45.1551 48.5563 43.7716 49.9411C42.3881 51.3258 40.6043 51.4731 39.2467 49.6575Z" fill="#FAF063"/>
        <path d="M38.6023 41.5384L35.3798 44.7537L32.9731 41.7026L35.5932 39.1523L38.6023 41.5384Z" fill="#F3D332"/>
        <path d="M39.2975 36.4949L30.3715 45.4021L22.7092 37.7492L31.6352 28.842L39.2975 36.4949Z" fill="#FAF063"/>
        <path d="M30.7226 47.3899L30.722 47.3905C29.9631 48.1479 28.856 48.2715 28.2489 47.6665L20.4374 39.869C19.83 39.2638 19.953 38.1584 20.7124 37.4006L20.713 37.3999C21.4719 36.6425 22.5789 36.519 23.1861 37.124L30.9976 44.9214C31.6051 45.5267 31.4819 46.6321 30.7226 47.3899Z" fill="#F3D332"/>
        <path d="M41.2614 36.8409L41.2621 36.8403C42.0187 36.0807 42.1422 34.9726 41.5378 34.3649L33.7478 26.546C33.1431 25.9379 32.0387 26.0612 31.2817 26.8212L31.281 26.8219C30.5244 27.5815 30.4009 28.6896 31.0053 29.2973L38.7953 37.1162C39.4 37.7242 40.5043 37.601 41.2614 36.8409Z" fill="#F3D332"/>
    </symbol>

    <symbol id="section-title__icon" viewBox="0 0 115 18" fill="none">
        <rect x="79" y="8" width="36" height="2" fill="#333333"/>
        <rect y="8" width="36" height="2" fill="#333333"/>
        <rect x="57.571" y="1.41421" width="10.1213" height="10.1213" transform="rotate(45 57.571 1.41421)" stroke="#333333" stroke-width="2"/>
    </symbol>

    <symbol id="form-button__icon" viewBox="0 0 22 18">
        <path d="M2 2.5V0.993C2.00183 0.730378 2.1069 0.479017 2.29251 0.293218C2.47813 0.107418 2.72938 0.00209465 2.992 0H21.008C21.556 0 22 0.445 22 0.993V17.007C21.9982 17.2696 21.8931 17.521 21.7075 17.7068C21.5219 17.8926 21.2706 17.9979 21.008 18H2.992C2.72881 17.9997 2.4765 17.895 2.29049 17.7088C2.10448 17.5226 2 17.2702 2 17.007V16H20V4.3L12 11.5L2 2.5ZM0 7H5V9H0V7ZM0 12H8V14H0V12Z"/>
    </symbol>

    <symbol id="service-description-icon-01" viewBox="0 0 60 44">
        <path d="M30.2978 4.96762C29.0761 4.88031 27.9411 5.23773 27.036 5.8934C26.9106 5.98422 26.7414 5.98293 26.616 5.89211C25.8017 5.30266 24.8011 4.95461 23.719 4.95461C23.449 4.95461 23.1844 4.97699 22.9264 5.01895C22.759 5.04613 22.607 4.92238 22.6007 4.75305C22.6007 4.75234 22.6007 4.75164 22.6006 4.75094C22.4938 2.11281 20.3213 0.00683594 17.6569 0.00683594C14.979 0.00683594 12.7979 2.13449 12.7118 4.7916V4.79324C12.708 4.91676 12.6 5.01086 12.4771 4.99797L12.4469 4.99481C12.2424 4.96856 12.034 4.95461 11.8223 4.95461C8.97169 4.95461 6.68419 7.36516 6.88704 10.2591C7.06001 12.7271 9.07938 14.7104 11.5498 14.8429C13.0116 14.9213 14.3438 14.3643 15.2968 13.424C16.1902 14.3056 17.4169 14.8502 18.7713 14.8502C19.6728 14.8502 20.5172 14.6078 21.2451 14.1866C21.9731 14.6079 22.8174 14.8502 23.7189 14.8502C24.8964 14.8502 25.9774 14.4381 26.8268 13.7513C27.6763 14.4381 28.7572 14.8502 29.9348 14.8502C32.7849 14.8502 35.0722 12.4403 34.8701 9.54695C34.7002 7.11238 32.7322 5.14152 30.2978 4.96762Z" fill="#F0F0F3"/>
        <path d="M34.8702 9.54694C34.733 7.58159 33.4236 5.91905 31.6435 5.25952C31.8018 5.68679 31.903 6.14089 31.936 6.6128C32.1381 9.50616 29.8507 11.916 27.0006 11.916C25.8231 11.916 24.7422 11.504 23.8927 10.8171C23.0432 11.504 21.9622 11.916 20.7847 11.916C19.8832 11.916 19.0388 11.6737 18.3109 11.2525C17.583 11.6738 16.7386 11.916 15.8371 11.916C14.4828 11.916 13.256 11.3713 12.3626 10.4898C11.4096 11.4301 10.0774 11.9871 8.61565 11.9087C8.11386 11.8818 7.63128 11.7774 7.17847 11.6093C7.84749 13.4165 9.55069 14.7358 11.5498 14.843C13.0116 14.9214 14.3438 14.3644 15.2967 13.4241C16.1902 14.3057 17.4169 14.8503 18.7712 14.8503C19.6728 14.8503 20.5172 14.6079 21.2451 14.1867C21.973 14.608 22.8174 14.8503 23.7189 14.8503C24.8964 14.8503 25.9773 14.4382 26.8268 13.7514C27.6763 14.4382 28.7571 14.8503 29.9347 14.8503C32.785 14.8501 35.0724 12.4403 34.8702 9.54694Z" fill="#E0DDE2"/>
        <path d="M19.9963 28.4557C19.1677 28.3704 18.3739 28.4762 17.6502 28.7307C16.6193 27.2771 14.8854 26.3571 12.943 26.4705C10.2043 26.6303 8.00269 28.8776 7.89535 31.6189C7.77523 34.6852 10.2254 37.2088 13.265 37.2088C13.7762 37.2088 14.2704 37.1366 14.7386 37.003C14.9239 36.9502 15.1216 37.0123 15.2422 37.1625C16.227 38.3887 17.7377 39.1743 19.4327 39.1743C22.5245 39.1743 25.0065 36.5632 24.7939 33.426C24.6186 30.8392 22.5753 28.7214 19.9963 28.4557Z" fill="#F0F0F3"/>
        <path d="M24.794 33.426C24.6705 31.6034 23.6191 30.0148 22.1069 29.1415C22.2532 29.5709 22.3469 30.0235 22.3787 30.4918C22.5912 33.6291 20.1093 36.2401 17.0176 36.2401C15.3224 36.2401 13.8118 35.4544 12.8271 34.2282C12.7064 34.0779 12.5088 34.0158 12.3235 34.0687C11.8552 34.2023 11.361 34.2745 10.8499 34.2745C9.87592 34.2745 8.96315 34.0143 8.17542 33.5613C8.8946 35.6821 10.9013 37.2086 13.2652 37.2086C13.7764 37.2086 14.2706 37.1364 14.7389 37.0028C14.9241 36.95 15.1218 37.0121 15.2424 37.1623C16.2273 38.3885 17.7379 39.1742 19.4329 39.1742C22.5247 39.1744 25.0066 36.5634 24.794 33.426Z" fill="#E0DDE2"/>
        <path d="M54.5618 17.462H5.31775L16.9067 33.2849C17.3605 33.9046 18.0826 34.2708 18.8508 34.2708H41.0286C41.7968 34.2708 42.5189 33.9046 42.9728 33.2849L54.5618 17.462Z" fill="#E0DDE2"/>
        <path d="M47.7421 17.462L39.9584 28.0895C39.5045 28.7092 38.7824 29.0754 38.0143 29.0754H13.8236L16.9067 33.2849C17.3606 33.9046 18.0827 34.2708 18.8508 34.2708H41.0287C41.7968 34.2708 42.519 33.9046 42.9728 33.2849L54.5617 17.462H47.7421Z" fill="#C8C1C9"/>
        <path d="M58.8281 19.6318H1.17188C0.524648 19.6318 0 19.1072 0 18.4599V10.8028C0 10.1556 0.524648 9.63092 1.17188 9.63092H58.8281C59.4754 9.63092 60 10.1556 60 10.8028V18.4599C60 19.1071 59.4754 19.6318 58.8281 19.6318Z" fill="#E0DDE2"/>
        <path d="M58.7951 9.62991H56.5314V14.9573C56.5314 15.6228 55.992 16.1622 55.3264 16.1622H0V18.4259C0 19.0914 0.539414 19.6308 1.20492 19.6308H58.7951C59.4606 19.6308 60 19.0914 60 18.4259V10.8348C60 10.1694 59.4606 9.62991 58.7951 9.62991Z" fill="#C8C1C9"/>
        <path d="M39.9794 30.769C39.7974 30.769 39.6137 30.7142 39.4543 30.6003C39.0484 30.3098 38.9549 29.7454 39.2452 29.3395L43.8793 22.863C44.1698 22.4572 44.7343 22.3636 45.1401 22.6539C45.5461 22.9444 45.6396 23.5088 45.3492 23.9147L40.7151 30.3912C40.5388 30.6377 40.2611 30.769 39.9794 30.769Z" fill="#786E79"/>
        <path d="M19.9 30.769C19.6183 30.769 19.3407 30.6377 19.1643 30.3911L14.5302 23.9146C14.2399 23.5087 14.3335 22.9443 14.7393 22.6538C15.1454 22.3634 15.7097 22.4572 16.0001 22.8629L20.6342 29.3394C20.9246 29.7453 20.8309 30.3097 20.4251 30.6002C20.2657 30.7142 20.082 30.769 19.9 30.769Z" fill="#786E79"/>
        <path d="M28.0718 30.7691C27.6352 30.7691 27.251 30.452 27.1804 30.0071L26.1519 23.5306C26.0737 23.0377 26.4099 22.5747 26.9028 22.4963C27.3957 22.4188 27.8588 22.7541 27.9371 23.2471L28.9655 29.7236C29.0438 30.2165 28.7076 30.6795 28.2147 30.7579C28.1666 30.7654 28.1189 30.7691 28.0718 30.7691Z" fill="#786E79"/>
        <path d="M31.8078 30.7691C31.7607 30.7691 31.713 30.7654 31.6649 30.7579C31.1721 30.6796 30.836 30.2166 30.9141 29.7236L31.9426 23.2471C32.0208 22.7542 32.4841 22.4185 32.9769 22.4963C33.4698 22.5746 33.8058 23.0376 33.7277 23.5306L32.6992 30.0071C32.6286 30.4519 32.2444 30.7691 31.8078 30.7691Z" fill="#786E79"/>
        <path d="M24.1245 30.7693C23.777 30.7693 23.4458 30.5678 23.2969 30.2294L20.4458 23.7529C20.2447 23.2961 20.4521 22.7628 20.9088 22.5617C21.3655 22.3605 21.899 22.5678 22.1001 23.0247L24.9511 29.5012C25.1522 29.958 24.9449 30.4913 24.4881 30.6924C24.3697 30.7445 24.2461 30.7693 24.1245 30.7693Z" fill="#786E79"/>
        <path d="M35.7551 30.7693C35.6335 30.7693 35.51 30.7445 35.3915 30.6924C34.9347 30.4913 34.7274 29.958 34.9285 29.5012L37.7796 23.0247C37.9807 22.5679 38.514 22.3607 38.9708 22.5617C39.4276 22.7628 39.6349 23.2961 39.4338 23.7529L36.5827 30.2294C36.4338 30.5678 36.1025 30.7693 35.7551 30.7693Z" fill="#786E79"/>
        <path d="M32.3612 16.4032H27.5183C26.5858 16.4032 25.8298 15.6473 25.8298 14.7148V14.6131C25.8298 13.6806 26.5858 12.9247 27.5183 12.9247H32.3612C33.2936 12.9247 34.0496 13.6806 34.0496 14.6131V14.7148C34.0495 15.6473 33.2936 16.4032 32.3612 16.4032Z" fill="#FB636F"/>
        <path d="M32.3612 12.9247H32.323V12.9882C32.323 13.9206 31.567 14.6766 30.6345 14.6766H25.8298V14.7148C25.8298 15.6473 26.5858 16.4032 27.5183 16.4032H32.3612C33.2936 16.4032 34.0496 15.6474 34.0496 14.7148V14.6131C34.0495 13.6806 33.2936 12.9247 32.3612 12.9247Z" fill="#FA2A3B"/>
        <path d="M52.9426 36.4993C52.9426 34.3568 51.3961 32.5766 49.3588 32.2117C49.1941 32.1822 49.0565 32.0717 48.9933 31.9168C48.3436 30.3272 46.783 29.2067 44.9597 29.2067C44.8952 29.2067 44.8311 29.2082 44.7674 29.2111C44.5871 29.2195 44.4185 29.1302 44.3246 28.9761C43.5599 27.7213 42.1795 26.883 40.6026 26.883C38.1963 26.883 36.2456 28.8337 36.2456 31.24C36.2456 31.3701 36.2515 31.4986 36.2628 31.6258C36.2899 31.9286 36.0405 32.1775 35.7374 32.1544C35.6294 32.1462 35.5203 32.142 35.4103 32.142C32.9792 32.142 31.0131 34.1331 31.0538 36.5736C31.0937 38.9625 33.0927 40.8562 35.482 40.8562H40.5215C40.8002 40.8562 41.0434 41.0345 41.1395 41.2961C41.7178 42.8699 43.2294 43.9929 45.0038 43.9929C46.8076 43.9929 48.3395 42.8325 48.8959 41.2178C48.9737 40.9921 49.1646 40.8241 49.3992 40.7798C51.4166 40.3988 52.9426 38.6275 52.9426 36.4993Z" fill="#F0F0F3"/>
        <path d="M50.3309 32.5078C50.5644 33.0417 50.6948 33.6312 50.6948 34.2514C50.6948 36.3796 49.1687 38.1509 47.1514 38.532C46.9167 38.5763 46.7258 38.7443 46.648 38.97C46.0916 40.5849 44.5598 41.7451 42.756 41.7451C42.2033 41.7451 41.6764 41.6362 41.1949 41.4386C41.8102 42.9373 43.2835 43.9929 45.0039 43.9929C46.8076 43.9929 48.3395 42.8325 48.8959 41.2178C48.9737 40.9921 49.1646 40.8241 49.3992 40.7798C51.4166 40.3987 52.9426 38.6274 52.9426 36.4991C52.9426 34.7138 51.868 33.1807 50.3309 32.5078Z" fill="#E0DDE2"/>
    </symbol>

    <symbol id="service-description-icon-02" viewBox="0 0 55 55">
        <path d="M29.6969 7.29374L28.3657 4.64061L22.4032 1.33124L21.0813 2.65311L24.3907 8.61561L27.0438 9.94686L40.301 23.2041L42.9541 20.55L29.6969 7.29374Z" fill="#FF6243"/>
        <path d="M22.4032 3.20624L28.3657 6.51561L29.6969 9.16874L42.0166 21.4875L42.9541 20.55L29.6969 7.29374L28.3657 4.64061L22.4032 1.33124L21.0813 2.65311L21.7507 3.85874L22.4032 3.20624Z" fill="#FF5023"/>
        <path d="M28.5512 20.1506C27.2319 19.9523 25.8836 20.1091 24.6451 20.6051C23.4066 21.101 22.3226 21.9181 21.5049 22.9722C20.6871 24.0263 20.1651 25.2794 19.9926 26.6023C19.8201 27.9252 20.0033 29.2702 20.5234 30.4987L25.4424 25.5797L28.7574 26.2425L29.4202 29.5575L24.5012 34.4766C25.7297 34.9966 27.0747 35.1799 28.3977 35.0073C29.7206 34.8348 30.9736 34.3128 32.0277 33.4951C33.0818 32.6773 33.8989 31.5934 34.3949 30.3549C34.8908 29.1164 35.0477 27.768 34.8493 26.4487C34.7462 25.8489 34.7858 25.2333 34.965 24.6516C35.1442 24.07 35.4578 23.5388 35.8806 23.1009L42.8509 16.125C43.2887 15.7023 43.82 15.3887 44.4016 15.2095C44.9832 15.0304 45.5989 14.9907 46.1987 15.0937C47.5173 15.2915 48.8648 15.1345 50.1025 14.6388C51.3403 14.1431 52.4237 13.3266 53.2412 12.2733C54.0588 11.22 54.581 9.96798 54.7542 8.64593C54.9273 7.32387 54.7452 5.97955 54.2265 4.75124L49.3074 9.67031L45.9924 9.00749L45.3296 5.69249L50.2487 0.773428C49.0201 0.253347 47.6751 0.0701304 46.3522 0.242644C45.0293 0.415158 43.7763 0.937168 42.7221 1.75492C41.668 2.57267 40.8509 3.65661 40.355 4.89512C39.8591 6.13364 39.7022 7.48196 39.9006 8.80124C40.0036 9.40105 39.9639 10.0167 39.7848 10.5983C39.6056 11.1799 39.292 11.7112 38.8693 12.1491L36.7131 14.3053L36.7187 14.3109L36.7131 14.3053L34.0599 16.9584L34.0656 16.9641L34.0599 16.9584L31.9037 19.1147C31.4658 19.539 30.934 19.8539 30.3514 20.0339C29.7689 20.2139 29.1521 20.2539 28.5512 20.1506Z" fill="#FF9811"/>
        <path d="M54.2266 4.75125L52.7782 6.19969C52.9873 7.21105 52.9841 8.25484 52.7687 9.26489C52.5533 10.2749 52.1304 11.2292 51.5268 12.0673C50.9232 12.9053 50.1521 13.6088 49.2624 14.1332C48.3727 14.6575 47.3837 14.9913 46.3582 15.1134C47.6673 15.2827 48.9979 15.1035 50.2156 14.5939C51.4333 14.0843 52.4949 13.2623 53.2932 12.211C54.0915 11.1597 54.5982 9.91635 54.7621 8.60653C54.926 7.2967 54.7413 5.96683 54.2266 4.75125Z" fill="#EE8700"/>
        <path d="M44.3238 15.0994C43.724 14.9963 43.1084 15.036 42.5267 15.2152C41.9451 15.3943 41.4139 15.7079 40.976 16.1306L34 23.1009C33.5773 23.5388 33.2637 24.07 33.0845 24.6516C32.9053 25.2333 32.8657 25.8489 32.9688 26.4488C33.1205 27.4404 33.0708 28.4524 32.8228 29.4244C32.5747 30.3963 32.1334 31.3084 31.5251 32.1061C30.9168 32.9037 30.154 33.5706 29.2823 34.067C28.4105 34.5633 27.4477 34.879 26.4513 34.995C27.6031 35.148 28.7747 35.0309 29.8734 34.6531C30.9722 34.2752 31.9679 33.647 32.782 32.818C33.5961 31.9889 34.2062 30.9819 34.564 29.8765C34.9219 28.7711 35.0177 27.5976 34.8438 26.4488C34.7407 25.8489 34.7803 25.2333 34.9595 24.6516C35.1387 24.07 35.4523 23.5388 35.875 23.1009L42.851 16.125C43.3868 15.6058 44.0685 15.2627 44.8047 15.1416C44.6444 15.1294 44.4832 15.1228 44.3238 15.0994Z" fill="#EE8700"/>
        <path d="M47.7071 33.2606C48.4104 33.9639 49.3643 34.359 50.3588 34.359C51.3534 34.359 52.3073 33.9639 53.0106 33.2606C53.7138 32.5573 54.1089 31.6035 54.1089 30.6089C54.1089 29.6143 53.7138 28.6605 53.0106 27.9572L46.9299 21.8775L41.6274 27.18L47.7071 33.2606Z" fill="#005ECE"/>
        <path d="M41.6274 27.18L46.9299 21.8775C47.2816 21.5259 47.4793 21.049 47.4793 20.5517C47.4794 20.0544 47.282 19.5775 46.9304 19.2258C46.5788 18.8741 46.1019 18.6764 45.6046 18.6763C45.1073 18.6762 44.6304 18.8737 44.2787 19.2253L38.9752 24.5287C38.8011 24.7029 38.6631 24.9096 38.5689 25.1371C38.4747 25.3646 38.4262 25.6084 38.4263 25.8547C38.4263 26.1009 38.4749 26.3447 38.5691 26.5722C38.6634 26.7997 38.8015 27.0064 38.9757 27.1804C39.1498 27.3545 39.3566 27.4926 39.5841 27.5868C39.8116 27.681 40.0554 27.7294 40.3016 27.7294C40.5479 27.7294 40.7917 27.6808 41.0192 27.5865C41.2467 27.4923 41.4533 27.3541 41.6274 27.18Z" fill="#004FAC"/>
        <path d="M8.3125 54.1875H15.8125V51.375V40.125V37.3125H8.3125V39.1875V52.3125V54.1875Z" fill="#006DF0"/>
        <path d="M0.8125 39.1875H8.3125V52.3125H0.8125V39.1875Z" fill="#004FAC"/>
        <path d="M54.5125 39.5625C54.3285 39.2429 54.0834 38.9627 53.7911 38.738C53.4988 38.5132 53.1651 38.3482 52.809 38.2524C52.4529 38.1566 52.0814 38.132 51.7158 38.1798C51.3502 38.2277 50.9976 38.3471 50.6781 38.5312L40.675 44.3062H40.6703C40.5372 43.8425 40.2865 43.421 39.9426 43.0826C39.5986 42.7442 39.1731 42.5005 38.7072 42.375L24.7197 38.625C23.7969 38.3778 22.8264 38.3698 21.8997 38.6015L15.8125 40.125V51.375L18.3747 52.6565C19.1558 53.0467 20.0169 53.2498 20.89 53.25H34.9309C35.918 53.2514 36.8881 52.9927 37.7434 52.5L53.4934 43.4062C54.1382 43.0315 54.6077 42.4161 54.7988 41.6953C54.9899 40.9745 54.8869 40.2074 54.5125 39.5625Z" fill="#FFBCAB"/>
        <path d="M5.5 39.1875H8.3125V52.3125H5.5V39.1875Z" fill="#00479B"/>
        <path d="M40.7416 44.6025C40.7257 44.6962 40.721 44.79 40.6957 44.8837C40.6004 45.2407 40.4356 45.5754 40.2109 45.8686C39.9862 46.1619 39.7059 46.408 39.3861 46.593C39.0662 46.7779 38.713 46.898 38.3468 46.9463C37.9805 46.9947 37.6082 46.9705 37.2513 46.875L29.1691 44.7093L27.176 44.1759L26.8798 45.0337L37.2513 47.8125C37.708 47.9373 38.1889 47.9443 38.6491 47.8326C39.1092 47.721 39.5334 47.4945 39.8822 47.1742C40.2309 46.854 40.4927 46.4505 40.643 46.0015C40.7933 45.5526 40.8272 45.0728 40.7416 44.6072V44.6025Z" fill="#FF9478"/>
    </symbol>

    <symbol id="service-description-icon-03" viewBox="0 0 56 56">
        <path d="M27.0625 0.8125H55.1875V31.75H27.0625V0.8125Z" fill="#EAE8E5"/>
        <path d="M0.8125 28H34.5625V31.75H0.8125V28Z" fill="#454A6D"/>
        <path d="M21.4375 28V20.5L24.4113 23.4738C25.8756 24.9381 28.2503 24.9381 29.7147 23.4738L36.4375 16.75L32.6875 13L27.0625 18.625L22.5597 13.3722C21.8472 12.5406 20.8075 12.0625 19.7125 12.0625H6.4375C4.36656 12.0625 2.6875 13.7416 2.6875 15.8125V24.25C2.6875 26.3209 4.36656 28 6.4375 28H21.4375Z" fill="#4AC3ED"/>
        <path d="M15.8125 28H13.9375V24.25C13.9375 23.7325 13.5166 23.3125 13 23.3125H7.375V19.5625H9.25V21.4375H13C14.5506 21.4375 15.8125 22.6994 15.8125 24.25V28Z" fill="#31A9D4"/>
        <path d="M16.75 7.375C16.75 10.1153 14.3978 12.3072 11.6022 12.0409C9.16469 11.8084 7.375 9.62219 7.375 7.17344V2.6875C7.375 1.65156 8.21406 0.8125 9.25 0.8125H14.875C15.9109 0.8125 16.75 1.65156 16.75 2.6875V3.625L18.625 7.375H16.75Z" fill="#E89D43"/>
        <path d="M9.25 12.0625L12.0625 17.6875L14.875 12.0625H9.25Z" fill="#EAE8E5"/>
        <path d="M44.875 8.42312L39.25 5.61062L34.0441 8.21406L33.2059 6.53594L39.25 3.51437L44.875 6.32687L50.0809 3.72344L50.9191 5.40156L44.875 8.42312Z" fill="#454A6D"/>
        <path d="M32.9568 13.2773L38.5807 7.65334L39.9064 8.97897L34.2824 14.6029L32.9568 13.2773Z" fill="#454A6D"/>
        <path d="M40.1875 13.9375H51.4375V15.8125H40.1875V13.9375Z" fill="#454A6D"/>
        <path d="M40.1875 17.6875H51.4375V19.5625H40.1875V17.6875Z" fill="#454A6D"/>
        <path d="M40.1875 21.4375H51.4375V23.3125H40.1875V21.4375Z" fill="#454A6D"/>
        <path d="M40.1875 25.1875H51.4375V27.0625H40.1875V25.1875Z" fill="#454A6D"/>
        <path d="M8.3125 44.875C5.72406 44.875 3.625 46.9741 3.625 49.5625V55.1875H13V49.5625C13 46.9741 10.9009 44.875 8.3125 44.875Z" fill="#76CC7A"/>
        <path d="M8.3125 44.875C10.3836 44.875 12.0625 43.1961 12.0625 41.125C12.0625 39.0539 10.3836 37.375 8.3125 37.375C6.24143 37.375 4.5625 39.0539 4.5625 41.125C4.5625 43.1961 6.24143 44.875 8.3125 44.875Z" fill="#76CC7A"/>
        <path d="M21.4375 44.875C18.8491 44.875 16.75 46.9741 16.75 49.5625V55.1875H26.125V49.5625C26.125 46.9741 24.0259 44.875 21.4375 44.875Z" fill="#76CC7A"/>
        <path d="M21.4375 44.875C23.5086 44.875 25.1875 43.1961 25.1875 41.125C25.1875 39.0539 23.5086 37.375 21.4375 37.375C19.3664 37.375 17.6875 39.0539 17.6875 41.125C17.6875 43.1961 19.3664 44.875 21.4375 44.875Z" fill="#76CC7A"/>
        <path d="M34.5625 44.875C31.9741 44.875 29.875 46.9741 29.875 49.5625V55.1875H39.25V49.5625C39.25 46.9741 37.1509 44.875 34.5625 44.875Z" fill="#76CC7A"/>
        <path d="M34.5625 44.875C36.6336 44.875 38.3125 43.1961 38.3125 41.125C38.3125 39.0539 36.6336 37.375 34.5625 37.375C32.4914 37.375 30.8125 39.0539 30.8125 41.125C30.8125 43.1961 32.4914 44.875 34.5625 44.875Z" fill="#76CC7A"/>
        <path d="M47.6875 44.875C45.0991 44.875 43 46.9741 43 49.5625V55.1875H52.375V49.5625C52.375 46.9741 50.2759 44.875 47.6875 44.875Z" fill="#76CC7A"/>
        <path d="M47.6875 44.875C49.7586 44.875 51.4375 43.1961 51.4375 41.125C51.4375 39.0539 49.7586 37.375 47.6875 37.375C45.6164 37.375 43.9375 39.0539 43.9375 41.125C43.9375 43.1961 45.6164 44.875 47.6875 44.875Z" fill="#76CC7A"/>
        <path d="M2.6875 31.75H32.6875V36.4375H2.6875V31.75Z" fill="#33385C"/>
    </symbol>

    <symbol id="service-description-icon-04" viewBox="0 0 50 60">
        <path d="M43.6206 60H0.172363V4.13794H29.1379L43.6206 18.6207V60Z" fill="#FCF05A"/>
        <path d="M49.8277 53.7931H6.37939V0H35.3449L49.8277 14.4828V53.7931Z" fill="#FDBD40"/>
        <path d="M35.3447 14.4828H49.8275L35.3447 0V14.4828Z" fill="#F49E21"/>
        <path d="M14.6552 45.5173H12.5862C12.0149 45.5173 11.5518 45.0541 11.5518 44.4828C11.5518 43.9115 12.0149 43.4483 12.5862 43.4483H14.6552C15.2265 43.4483 15.6897 43.9115 15.6897 44.4828C15.6897 45.0541 15.2265 45.5173 14.6552 45.5173Z" fill="#E9686A"/>
        <path d="M43.6209 45.5173H18.7933C18.222 45.5173 17.7588 45.0541 17.7588 44.4828C17.7588 43.9115 18.222 43.4483 18.7933 43.4483H43.6209C44.1922 43.4483 44.6553 43.9115 44.6553 44.4828C44.6553 45.0541 44.1922 45.5173 43.6209 45.5173Z" fill="#E9686A"/>
        <path d="M14.6552 39.3104H12.5862C12.0149 39.3104 11.5518 38.8472 11.5518 38.2759C11.5518 37.7046 12.0149 37.2414 12.5862 37.2414H14.6552C15.2265 37.2414 15.6897 37.7046 15.6897 38.2759C15.6897 38.8472 15.2265 39.3104 14.6552 39.3104Z" fill="#E9686A"/>
        <path d="M43.6209 39.3104H18.7933C18.222 39.3104 17.7588 38.8472 17.7588 38.2759C17.7588 37.7046 18.222 37.2414 18.7933 37.2414H43.6209C44.1922 37.2414 44.6553 37.7046 44.6553 38.2759C44.6553 38.8472 44.1922 39.3104 43.6209 39.3104Z" fill="#E9686A"/>
        <path d="M14.6552 33.1035H12.5862C12.0149 33.1035 11.5518 32.6403 11.5518 32.069C11.5518 31.4977 12.0149 31.0345 12.5862 31.0345H14.6552C15.2265 31.0345 15.6897 31.4977 15.6897 32.069C15.6897 32.6403 15.2265 33.1035 14.6552 33.1035Z" fill="#E9686A"/>
        <path d="M43.6209 33.1035H18.7933C18.222 33.1035 17.7588 32.6403 17.7588 32.069C17.7588 31.4977 18.222 31.0345 18.7933 31.0345H43.6209C44.1922 31.0345 44.6553 31.4977 44.6553 32.069C44.6553 32.6403 44.1922 33.1035 43.6209 33.1035Z" fill="#E9686A"/>
        <path d="M14.6552 26.8966H12.5862C12.0149 26.8966 11.5518 26.4334 11.5518 25.8621C11.5518 25.2908 12.0149 24.8276 12.5862 24.8276H14.6552C15.2265 24.8276 15.6897 25.2908 15.6897 25.8621C15.6897 26.4334 15.2265 26.8966 14.6552 26.8966Z" fill="#E9686A"/>
        <path d="M43.6209 26.8966H18.7933C18.222 26.8966 17.7588 26.4334 17.7588 25.8621C17.7588 25.2908 18.222 24.8276 18.7933 24.8276H43.6209C44.1922 24.8276 44.6553 25.2908 44.6553 25.8621C44.6553 26.4334 44.1922 26.8966 43.6209 26.8966Z" fill="#E9686A"/>
        <path d="M14.6552 20.6897H12.5862C12.0149 20.6897 11.5518 20.2265 11.5518 19.6552C11.5518 19.0839 12.0149 18.6207 12.5862 18.6207H14.6552C15.2265 18.6207 15.6897 19.0839 15.6897 19.6552C15.6897 20.2265 15.2265 20.6897 14.6552 20.6897Z" fill="#E9686A"/>
        <path d="M43.6209 20.6897H18.7933C18.222 20.6897 17.7588 20.2265 17.7588 19.6552C17.7588 19.0839 18.222 18.6207 18.7933 18.6207H43.6209C44.1922 18.6207 44.6553 19.0839 44.6553 19.6552C44.6553 20.2265 44.1922 20.6897 43.6209 20.6897Z" fill="#E9686A"/>
        <path d="M12.5862 9.31036H18.7931V15.5173H12.5862V9.31036Z" fill="#E9686A"/>
    </symbol>

    <symbol id="user-icon-form" viewBox="0 0 14 15">
        <path d="M3.625 3.875C3.625 5.73575 5.13925 7.25 7 7.25C8.86075 7.25 10.375 5.73575 10.375 3.875C10.375 2.01425 8.86075 0.5 7 0.5C5.13925 0.5 3.625 2.01425 3.625 3.875ZM13 14.75H13.75V14C13.75 11.1058 11.3942 8.75 8.5 8.75H5.5C2.605 8.75 0.25 11.1058 0.25 14V14.75H13Z"/>
    </symbol>

    <symbol id="phone-icon-form" viewBox="0 0 17 17">
        <path d="M10.854 5.40008L10.665 5.22008C10.197 4.73408 10.278 4.50908 10.737 4.05008L13.185 1.57508C13.914 0.83708 14.049 0.48608 14.742 1.14308L14.931 1.32308L10.854 5.40008ZM11.331 5.80508L15.291 1.84508C15.921 2.69108 17.397 4.96808 16.668 6.65108C16.011 8.15408 15.687 8.22608 14.868 9.35108C13.203 11.2501 11.106 13.2841 9.46803 14.8141C8.33403 15.6331 8.28903 16.0111 6.76803 16.6141C5.14803 17.2531 2.80803 15.8131 1.92603 15.2101L5.88603 11.2501L6.94803 12.7081C7.25403 13.1221 8.02803 12.6541 8.56803 12.1141C9.50403 11.1691 11.43 9.25208 12.168 8.45108C12.699 7.92008 13.176 7.14608 12.762 6.83108L11.331 5.80508ZM1.41303 14.8501L1.22403 14.6611C0.612026 13.9951 0.963026 13.8511 1.69203 13.1311L4.15803 10.6831C4.61703 10.2421 4.83303 10.1431 5.30103 10.5841L5.48103 10.7731L1.41303 14.8501Z"/>
    </symbol>

    <symbol id="email-icon-form" viewBox="0 0 14 12">
        <path d="M13.47 0.634125H0.530148C0.40814 0.634268 0.291173 0.682811 0.204917 0.769101C0.118661 0.85539 0.0701636 0.972377 0.0700684 1.09438V2.0203C0.0700684 2.06296 0.116328 2.11193 0.154128 2.13172L6.95561 6.01666C6.97303 6.02662 6.99278 6.03178 7.01285 6.0316C7.03336 6.03166 7.05351 6.02619 7.07117 6.01577L13.6671 2.1355C13.7042 2.1148 13.8024 2.06008 13.8393 2.03488C13.884 2.00446 13.9301 1.97693 13.9301 1.92238V1.09421C13.9299 0.972228 13.8814 0.855288 13.7952 0.769037C13.7089 0.682786 13.592 0.634268 13.47 0.634125Z"/>
        <path d="M13.8727 3.4165C13.855 3.4064 13.835 3.40115 13.8146 3.40128C13.7942 3.4014 13.7742 3.4069 13.7566 3.41722L10.024 5.6134C10.0091 5.62207 9.99637 5.63397 9.98672 5.64823C9.97708 5.66249 9.97077 5.67874 9.96826 5.69577C9.96576 5.7128 9.96712 5.73018 9.97224 5.74661C9.97737 5.76305 9.98613 5.77811 9.99787 5.7907L13.7311 9.81496C13.7418 9.82658 13.7548 9.83585 13.7692 9.84217C13.7837 9.84849 13.7993 9.85173 13.8151 9.85168C13.8456 9.85163 13.8749 9.8395 13.8964 9.81794C13.918 9.79638 13.9301 9.76715 13.9302 9.73666V3.5164C13.9302 3.49617 13.925 3.47627 13.9149 3.45873C13.9048 3.44119 13.8903 3.42662 13.8727 3.4165Z"/>
        <path d="M8.94833 6.35071C8.9306 6.33141 8.9068 6.31878 8.88089 6.31491C8.85498 6.31105 8.82852 6.31619 8.80594 6.32947L7.30978 7.20985C7.22213 7.2605 7.1228 7.28748 7.02156 7.28815C6.92033 7.28881 6.82066 7.26313 6.73234 7.21363L5.41564 6.46141C5.39439 6.44931 5.36983 6.44428 5.34552 6.44706C5.32122 6.44985 5.29843 6.46029 5.28046 6.47689L0.280425 11.1148C0.267317 11.127 0.257253 11.1422 0.251035 11.159C0.244817 11.1758 0.242616 11.1939 0.244609 11.2117C0.246602 11.2296 0.252734 11.2467 0.262515 11.2617C0.272296 11.2768 0.285455 11.2893 0.300945 11.2984C0.378705 11.3441 0.453765 11.3659 0.530085 11.3659H13.3376C13.36 11.3659 13.382 11.3594 13.4007 11.3471C13.4194 11.3347 13.4341 11.3172 13.4429 11.2966C13.4519 11.2761 13.4547 11.2534 13.4509 11.2314C13.4471 11.2093 13.437 11.1889 13.4217 11.1726L8.94833 6.35071Z"/>
        <path d="M4.18019 5.92824C4.19343 5.91599 4.20361 5.90081 4.2099 5.8839C4.21619 5.867 4.21842 5.84886 4.21641 5.83093C4.21439 5.81301 4.20819 5.79581 4.1983 5.78073C4.18842 5.76564 4.17512 5.75309 4.15949 5.7441L0.24161 3.50634C0.224125 3.49641 0.204341 3.49125 0.184235 3.49137C0.164129 3.49148 0.144406 3.49688 0.127039 3.50701C0.109672 3.51714 0.0952698 3.53166 0.0852724 3.5491C0.0752749 3.56655 0.0700328 3.58631 0.0700702 3.60642V9.47802C0.0699433 9.50044 0.0763951 9.52241 0.088627 9.54121C0.100859 9.56 0.118334 9.5748 0.138889 9.58376C0.159444 9.59273 0.182177 9.59547 0.204274 9.59165C0.22637 9.58782 0.246861 9.57761 0.26321 9.56226L4.18019 5.92824Z"/>
    </symbol>

    <symbol id="socials-list-instagram" viewBox="0 0 11 11">
        <path d="M9.44962 0.42627H1.92342C1.07368 0.42627 0.42627 1.07368 0.42627 1.92342V9.44961C0.42627 10.2993 1.07368 10.9468 1.92342 10.9468H9.44962C10.2993 10.9468 10.9468 10.2993 10.9468 9.44961V1.92342C10.9468 1.07368 10.2993 0.42627 9.44962 0.42627ZM5.68652 8.84266C7.42644 8.84266 8.84266 7.46691 8.84266 5.80791C8.84266 5.52466 8.8022 5.20095 8.72127 4.95817H9.61147V9.2473C9.61147 9.44961 9.44961 9.65193 9.20683 9.65193H2.1662C1.96388 9.65193 1.76156 9.49008 1.76156 9.2473V4.91771H2.69222C2.6113 5.20095 2.57083 5.4842 2.57083 5.76744C2.53037 7.46691 3.94659 8.84266 5.68652 8.84266ZM5.68652 7.62876C4.55354 7.62876 3.66334 6.73857 3.66334 5.64605C3.66334 4.55354 4.55354 3.66334 5.68652 3.66334C6.81949 3.66334 7.70969 4.55354 7.70969 5.64605C7.70969 6.77903 6.81949 7.62876 5.68652 7.62876ZM9.57101 3.29917C9.57101 3.54195 9.36869 3.74427 9.12591 3.74427H7.99293C7.75015 3.74427 7.54784 3.54195 7.54784 3.29917V2.20666C7.54784 1.96388 7.75015 1.76156 7.99293 1.76156H9.12591C9.36869 1.76156 9.57101 1.96388 9.57101 2.20666V3.29917Z"/>
    </symbol>

    <symbol id="socials-list-youtube" viewBox="0 0 12 9">
        <path d="M11.8512 3.70456C11.8512 3.46452 11.8112 3.18448 11.8112 2.86443C11.7712 2.54437 11.7312 2.22432 11.6912 1.94427C11.6112 1.62422 11.4912 1.38418 11.2511 1.18415C11.0511 0.984117 10.771 0.864093 10.491 0.824087C9.57084 0.704067 8.21062 0.664062 6.37032 0.664062C4.53001 0.664062 3.12977 0.704067 2.24963 0.824087C1.96958 0.864093 1.68954 0.984117 1.4895 1.18415C1.28947 1.38418 1.12944 1.62422 1.04943 1.94427C0.969415 2.22432 0.929413 2.50437 0.929413 2.86443C0.889407 3.18448 0.889404 3.46452 0.889404 3.70456C0.889404 3.9446 0.889404 4.22465 0.889404 4.62472C0.889404 5.02478 0.889404 5.34484 0.889404 5.54487C0.889404 5.78491 0.929413 6.06496 0.929413 6.38501C0.96942 6.70506 1.00942 7.02511 1.04943 7.30516C1.12944 7.62521 1.24946 7.86526 1.4895 8.06529C1.68954 8.26532 1.96958 8.38534 2.24963 8.42535C3.16978 8.54537 4.53001 8.58538 6.37032 8.58538C8.21062 8.58538 9.61085 8.54537 10.491 8.42535C10.771 8.38534 11.0511 8.26532 11.2511 8.06529C11.4511 7.86526 11.6112 7.62521 11.6912 7.30516C11.7712 7.02511 11.8112 6.74507 11.8112 6.38501C11.8512 6.06496 11.8512 5.78491 11.8512 5.54487C11.8512 5.30483 11.8512 5.02478 11.8512 4.62472C11.8512 4.22465 11.8512 3.9046 11.8512 3.70456ZM8.49066 4.94477L5.33014 6.90509C5.29014 6.9451 5.21012 6.98511 5.13011 6.98511C5.0501 6.98511 5.01009 6.98511 4.93008 6.9451C4.81006 6.86509 4.73004 6.74507 4.73004 6.58504V2.62438C4.73004 2.46436 4.81006 2.34434 4.93008 2.26433C5.0501 2.18431 5.21012 2.18431 5.33014 2.26433L8.49066 4.22465C8.61068 4.30466 8.6907 4.42468 8.6907 4.5447C8.6907 4.66472 8.61068 4.86476 8.49066 4.94477Z"/>
    </symbol>

    <symbol id="socials-list-facebook" viewBox="0 0 12 12">
        <path d="M11.1107 2.5517C11.1107 1.62503 10.293 0.807373 9.36637 0.807373H2.33454C1.40786 0.807373 0.59021 1.62503 0.59021 2.5517V9.58353C0.59021 10.5102 1.40786 11.3279 2.33454 11.3279H5.87771V7.34861H4.56946V5.60428H5.87771V4.89565C5.87771 3.69642 6.74988 2.66072 7.84008 2.66072H9.25735V4.40505H7.84008C7.67655 4.40505 7.51302 4.56858 7.51302 4.89565V5.60428H9.25735V7.34861H7.51302V11.3279H9.36637C10.293 11.3279 11.1107 10.5102 11.1107 9.58353V2.5517Z"/>
    </symbol>

    <symbol id="socials-list-vk" viewBox="0 0 14 9">
        <path d="M13.6914 7.54265C13.6914 7.49127 13.64 7.49127 13.64 7.43989C13.4345 7.02886 12.9721 6.51507 12.3556 5.94991C12.0473 5.69301 11.8932 5.48749 11.7904 5.38474C11.6363 5.17922 11.6363 5.02509 11.6877 4.81957C11.739 4.66543 11.9445 4.40853 12.3042 3.94612C12.5097 3.68923 12.6125 3.5351 12.7666 3.38096C13.5373 2.35338 13.8969 1.68545 13.7942 1.37718L13.7428 1.3258C13.6914 1.27442 13.64 1.22304 13.5373 1.22304C13.4345 1.17167 13.2804 1.17167 13.1263 1.22304H11.1739C11.1225 1.22304 11.1225 1.22304 11.0197 1.22304C10.9683 1.22304 10.917 1.22304 10.917 1.22304H10.8656H10.8142L10.7628 1.27442C10.7114 1.3258 10.7114 1.3258 10.7114 1.37718C10.5059 1.94234 10.249 2.40475 9.99214 2.91854C9.838 3.17544 9.68387 3.43234 9.52973 3.63785C9.3756 3.84337 9.27283 3.9975 9.17008 4.10026C9.06732 4.20302 8.96456 4.2544 8.91318 4.35716C8.8618 4.40854 8.75905 4.45992 8.75905 4.40854C8.70767 4.40854 8.65629 4.40854 8.65629 4.35716C8.60491 4.30578 8.55353 4.2544 8.50216 4.20302C8.45078 4.15164 8.45077 4.04888 8.39939 3.94612C8.39939 3.84336 8.39939 3.74061 8.39939 3.68923C8.39939 3.63785 8.39939 3.48372 8.39939 3.38096C8.39939 3.22682 8.39939 3.12406 8.39939 3.07268C8.39939 2.91855 8.39939 2.71303 8.39939 2.50752C8.39939 2.302 8.39939 2.14786 8.39939 2.0451C8.39939 1.94235 8.39939 1.78821 8.39939 1.68545C8.39939 1.53132 8.39939 1.42855 8.39939 1.37718C8.39939 1.3258 8.34802 1.22304 8.34802 1.17166C8.29665 1.12028 8.24526 1.0689 8.19388 1.01752C8.1425 0.966145 8.03974 0.966147 7.98837 0.914768C7.73147 0.863389 7.4232 0.812012 7.06355 0.812012C6.24149 0.812012 5.67632 0.863392 5.4708 0.96615C5.36804 1.01753 5.26529 1.0689 5.21391 1.17166C5.11115 1.27442 5.11115 1.3258 5.16252 1.3258C5.41942 1.37718 5.62494 1.47993 5.7277 1.63407L5.77908 1.73683C5.83046 1.78821 5.83045 1.89097 5.88183 2.0451C5.93321 2.19924 5.93321 2.35338 5.93321 2.55889C5.93321 2.86717 5.93321 3.17544 5.93321 3.38096C5.93321 3.63785 5.88183 3.79199 5.88183 3.94612C5.88183 4.10026 5.83046 4.20302 5.77908 4.2544C5.7277 4.35716 5.72769 4.40854 5.67631 4.40854C5.67631 4.40854 5.67631 4.45991 5.62493 4.45991C5.57355 4.45991 5.52218 4.51129 5.41942 4.51129C5.36804 4.51129 5.26529 4.45992 5.21391 4.40854C5.11115 4.35716 5.00839 4.2544 4.95701 4.15164C4.85425 4.04889 4.75149 3.89474 4.64874 3.68923C4.54598 3.48371 4.39183 3.2782 4.28908 2.96993L4.18633 2.76441C4.13495 2.66166 4.03219 2.45614 3.92943 2.19924C3.82668 1.94235 3.72391 1.73683 3.62116 1.47994C3.56978 1.37718 3.5184 1.3258 3.46703 1.27442H3.41564C3.41564 1.27442 3.36426 1.22304 3.31288 1.22304C3.2615 1.22304 3.21013 1.17166 3.15875 1.17166H1.3091C1.10359 1.17166 1.00083 1.22304 0.949453 1.27442L0.898071 1.3258C0.898071 1.3258 0.898071 1.37718 0.898071 1.42856C0.898071 1.47994 0.898074 1.53131 0.949453 1.63407C1.20635 2.25062 1.51462 2.86717 1.82289 3.48372C2.13117 4.04888 2.43944 4.56267 2.64496 4.92233C2.90185 5.28198 3.10737 5.64163 3.36426 5.94991C3.62116 6.25818 3.77529 6.46369 3.82667 6.56645C3.92943 6.66921 3.9808 6.72059 4.03218 6.77197L4.18633 6.9261C4.28909 7.02886 4.44322 7.183 4.64874 7.33714C4.85425 7.49127 5.11114 7.64541 5.36804 7.79954C5.62493 7.95368 5.93321 8.05644 6.24149 8.1592C6.60114 8.26196 6.90941 8.31334 7.21768 8.26196H7.98837C8.1425 8.26196 8.24527 8.21058 8.34802 8.10782L8.39939 8.05644C8.39939 8.00506 8.45077 8.00506 8.45077 7.95368C8.45077 7.9023 8.45077 7.85093 8.45077 7.74817C8.45077 7.54265 8.45078 7.38852 8.50216 7.23438C8.55353 7.08024 8.55354 6.97749 8.60492 6.87473C8.6563 6.77197 8.70767 6.72059 8.75905 6.66921C8.81043 6.61783 8.86181 6.56645 8.86181 6.56645H8.91318C9.01594 6.51507 9.17008 6.56645 9.27284 6.66921C9.42698 6.77197 9.58111 6.92611 9.68386 7.08024C9.78662 7.23438 9.94077 7.38852 10.1463 7.59403C10.3518 7.79955 10.5059 7.95369 10.6087 8.00506L10.7628 8.10782C10.8656 8.1592 10.9683 8.21058 11.1225 8.26196C11.2766 8.31334 11.3794 8.31333 11.4821 8.31333L13.229 8.26196C13.3832 8.26196 13.5373 8.21058 13.64 8.1592C13.7428 8.10782 13.7942 8.05644 13.7942 7.95368C13.7942 7.9023 13.7942 7.79955 13.7942 7.74817C13.6914 7.64541 13.6914 7.59403 13.6914 7.54265Z"/>
    </symbol>

    <symbol id="web-development-logo"  viewBox="0 0 33 31">
        <path d="M6.28959 25.2055C6.00303 24.9171 5.66057 24.6778 5.27889 24.4994C4.88597 24.3138 4.45748 24.1967 4.01609 24.1544C3.9533 24.1459 3.88994 24.1412 3.82645 24.1404H3.60334C2.89574 24.1325 2.20201 24.3171 1.61318 24.6699C1.03896 25.0124 0.584773 25.4945 0.303514 26.06C0.207827 26.2606 0.133134 26.4688 0.0804033 26.6819C-0.0281032 27.1151 -0.0281032 27.5646 0.0804033 27.9978C0.133038 28.2115 0.207732 28.4203 0.303514 28.6216C0.589488 29.1818 1.04289 29.6596 1.61318 30.0017C2.1999 30.3574 2.89348 30.5436 3.6011 30.5352C3.87569 30.5366 4.14958 30.5103 4.41768 30.457C4.66833 30.4033 4.91265 30.3281 5.14726 30.2324L5.25212 30.1802C5.30613 30.1511 5.36287 30.1262 5.42168 30.106L5.57787 30.0518L5.65818 30.1621C5.73148 30.2759 5.83699 30.3702 5.96397 30.4353C6.09094 30.5005 6.23485 30.5343 6.38106 30.5332C6.60228 30.5323 6.81438 30.4539 6.97231 30.3146C7.05605 30.25 7.12346 30.17 7.17002 30.0801C7.21658 29.9901 7.24122 29.8923 7.24228 29.7931V27.3378C7.23906 26.942 7.15118 26.5504 6.98346 26.1844C6.81633 25.8248 6.58162 25.4936 6.28959 25.2055ZM5.36591 28.0138C5.26734 28.216 5.12732 28.3998 4.95316 28.5554C4.77774 28.7107 4.57001 28.8334 4.34183 28.9165C4.10456 29.0034 3.85063 29.0477 3.5944 29.0469C3.34822 29.0465 3.1049 28.9994 2.88045 28.9084C2.65708 28.8197 2.45252 28.6969 2.27582 28.5454C2.09697 28.391 1.9517 28.208 1.84745 28.0058C1.73788 27.7962 1.68148 27.5674 1.68234 27.3358C1.68274 27.1104 1.73595 26.8876 1.83852 26.6819C1.93901 26.4774 2.08129 26.2916 2.25797 26.1343C2.43341 25.9778 2.63906 25.8514 2.86484 25.7612C3.09559 25.6704 3.34475 25.6235 3.59664 25.6235C3.84853 25.6235 4.0977 25.6704 4.32845 25.7612C4.55773 25.85 4.76655 25.9766 4.94422 26.1343C5.12087 26.2916 5.26314 26.4774 5.36367 26.6819C5.46624 26.8876 5.51946 27.1104 5.51985 27.3358C5.5228 27.571 5.47033 27.8041 5.36591 28.0198V28.0138Z" fill="white"/>
        <path d="M12.222 24.1566C11.7503 24.1725 11.2856 24.2642 10.8499 24.4274C10.431 24.5831 10.0475 24.8068 9.7187 25.0873C9.40037 25.368 9.14377 25.7001 8.96235 26.0662C8.77051 26.4397 8.67227 26.8464 8.67454 27.2577V29.8133C8.67072 29.9128 8.69019 30.0118 8.7317 30.1041C8.77321 30.1964 8.83584 30.2798 8.91551 30.3489C8.99024 30.4153 9.07921 30.4673 9.17702 30.5018C9.27483 30.5362 9.37943 30.5525 9.48444 30.5495C9.70746 30.5606 9.92634 30.4921 10.0935 30.3589C10.1718 30.2982 10.2353 30.2235 10.2798 30.1396C10.3244 30.0557 10.3491 29.9644 10.3523 29.8715V27.352C10.3459 27.1182 10.3946 26.8858 10.4951 26.67C10.5906 26.4682 10.7277 26.2845 10.899 26.1284C11.0749 25.9711 11.2838 25.8466 11.5136 25.7622C11.7434 25.6779 11.9894 25.6353 12.2376 25.637C12.4643 25.6341 12.6813 25.5538 12.8445 25.4123C12.922 25.3472 12.9836 25.2683 13.0251 25.1805C13.0666 25.0928 13.0871 24.9981 13.0855 24.9028C13.0707 24.7019 12.9746 24.5128 12.8155 24.3712C12.7384 24.3005 12.6459 24.2449 12.5438 24.208C12.4416 24.171 12.3321 24.1535 12.222 24.1566Z" fill="white"/>
        <path d="M20.6981 28.8343C20.6534 28.7498 20.5887 28.6751 20.5084 28.6156C20.3443 28.4809 20.1282 28.4089 19.906 28.415H19.8904C19.6673 28.4114 19.4508 28.4829 19.2835 28.6156C19.1222 28.7547 18.9298 28.8614 18.7191 28.9286C18.4749 29.0027 18.2181 29.0373 17.9605 29.0309C17.6966 29.0321 17.4353 28.9843 17.193 28.8904C16.9616 28.8007 16.7529 28.6697 16.5794 28.5053C16.4214 28.342 16.2988 28.1536 16.218 27.9497C16.1332 27.737 16.0968 27.5112 16.1109 27.2857V25.6389H18.0073C18.1158 25.6376 18.2227 25.616 18.3214 25.5756C18.4201 25.5352 18.5084 25.4768 18.5807 25.4042C18.6606 25.337 18.7248 25.2562 18.7695 25.1665C18.8142 25.0768 18.8385 24.98 18.841 24.8817C18.8435 24.7834 18.8241 24.6856 18.784 24.5942C18.7439 24.5027 18.6839 24.4194 18.6075 24.3491C18.5301 24.2778 18.4362 24.2229 18.3324 24.1882C18.2287 24.1536 18.1176 24.14 18.0073 24.1485H16.1109V22.7122C16.115 22.6169 16.0949 22.5219 16.0519 22.4347C16.009 22.3474 15.9445 22.2701 15.8632 22.2087C15.6799 22.0737 15.4487 22.0024 15.2117 22.0081C14.9782 22.0023 14.7504 22.0737 14.5714 22.2087C14.4902 22.2701 14.4256 22.3474 14.3827 22.4347C14.3398 22.5219 14.3196 22.6169 14.3238 22.7122V27.2737C14.315 27.7351 14.4169 28.1928 14.6227 28.6156C14.8139 29.0047 15.091 29.3548 15.4371 29.6447C15.7859 29.933 16.1935 30.1578 16.6374 30.3066C17.1049 30.4629 17.6 30.5417 18.0988 30.5393C18.5583 30.5428 19.0137 30.4622 19.4375 30.3026C19.8633 30.1382 20.252 29.905 20.5843 29.6146C20.6556 29.5512 20.7091 29.4735 20.7404 29.3879C20.7747 29.2969 20.7898 29.201 20.7851 29.1051C20.7765 29.0105 20.747 28.9184 20.6981 28.8343Z" fill="white"/>
        <path d="M32.2796 29.2676L30.1244 27.3379L32.2774 25.4082C32.3516 25.3383 32.4095 25.2559 32.4478 25.1656C32.4861 25.0754 32.5041 24.9792 32.5005 24.8826C32.5046 24.7875 32.4869 24.6927 32.4485 24.604C32.4102 24.5153 32.3519 24.4347 32.2774 24.3671C32.1228 24.2246 31.912 24.1424 31.6906 24.1384H31.6817C31.5791 24.1389 31.4777 24.1582 31.3837 24.1951C31.2898 24.232 31.2052 24.2857 31.1351 24.3531L28.933 26.2848L26.7777 24.3711C26.6156 24.2371 26.4082 24.1559 26.1887 24.1404C26.0783 24.1365 25.9683 24.1548 25.8667 24.194C25.7652 24.2332 25.6747 24.2924 25.6019 24.3671C25.4572 24.5139 25.3695 24.6991 25.352 24.8947C25.3448 24.9853 25.3612 25.0762 25.3999 25.1601C25.4386 25.244 25.4986 25.3187 25.5751 25.3781L27.7772 27.3359L25.5751 29.2936C25.4982 29.3609 25.4385 29.4424 25.4 29.5324C25.3615 29.6225 25.3451 29.7189 25.352 29.8152C25.359 30.0092 25.4493 30.1933 25.6041 30.3287C25.6798 30.4002 25.7725 30.4555 25.8753 30.4902C25.9781 30.5249 26.0883 30.5383 26.1976 30.5293C26.4155 30.5242 26.6253 30.4536 26.7933 30.3287L28.9396 28.407L31.0949 30.2926C31.1721 30.37 31.2667 30.4319 31.3725 30.4741C31.4783 30.5163 31.5927 30.5378 31.7084 30.5373C31.8156 30.5413 31.9225 30.5255 32.0226 30.491C32.1228 30.4565 32.214 30.404 32.2908 30.3367C32.3726 30.2681 32.4368 30.1843 32.4788 30.0911C32.5208 29.9979 32.5396 29.8976 32.5339 29.7971C32.5331 29.698 32.5102 29.6001 32.4665 29.5092C32.4228 29.4182 32.3593 29.336 32.2796 29.2676Z" fill="white"/>
        <path d="M23.5383 24.353C23.485 24.3117 23.4266 24.276 23.3643 24.2467C23.2429 24.1778 23.1018 24.1423 22.9582 24.1444C22.8147 24.1423 22.6736 24.1778 22.5522 24.2467C22.4898 24.276 22.4314 24.3117 22.3781 24.353C22.2986 24.4117 22.2346 24.4855 22.1906 24.5691C22.1466 24.6526 22.1238 24.744 22.1238 24.8364V29.8372C22.1239 29.9357 22.1481 30.0329 22.1948 30.122C22.2414 30.2111 22.3094 30.2899 22.3937 30.3527C22.5467 30.4741 22.7453 30.5387 22.9493 30.5332H22.9783C23.1823 30.5387 23.3809 30.4741 23.5338 30.3527C23.6182 30.2899 23.6862 30.2111 23.7328 30.122C23.7795 30.0329 23.8037 29.9357 23.8038 29.8372V24.8364C23.8024 24.7431 23.7779 24.6513 23.7319 24.5677C23.686 24.484 23.6198 24.4107 23.5383 24.353Z" fill="white"/>
        <path d="M23.5829 22.2467C23.5116 22.176 23.4244 22.1198 23.3271 22.0817C23.2297 22.0437 23.1245 22.0247 23.0184 22.026C22.8013 22.0219 22.5908 22.0938 22.4316 22.2266C22.3518 22.2889 22.2874 22.3656 22.2424 22.4516C22.1974 22.5376 22.173 22.6311 22.1706 22.7261C22.1614 22.8289 22.1765 22.9323 22.215 23.0294C22.2534 23.1266 22.3143 23.2153 22.3937 23.2898C22.5635 23.428 22.7849 23.5039 23.014 23.5024C23.1193 23.5032 23.2237 23.4839 23.3202 23.4459C23.4167 23.4079 23.5032 23.3519 23.574 23.2818C23.727 23.1434 23.8128 22.9563 23.8128 22.7612C23.8128 22.5661 23.727 22.379 23.574 22.2407L23.5829 22.2467Z" fill="white"/>
        <path d="M16.2607 8.11548C13.8213 8.11548 11.6038 10.1116 11.6038 12.5733C11.6071 13.4789 11.9064 14.3609 12.4598 15.0965C13.6439 14.4255 14.9279 13.9513 16.2695 13.9513C17.6112 13.9513 18.8929 14.4255 20.0793 15.0965C20.6327 14.3609 20.932 13.4789 20.9353 12.5733C20.9264 10.1116 18.7066 8.11548 16.2607 8.11548Z" fill="#26282F"/>
        <path d="M16.2589 0C10.2715 0 5.41724 12.1014 5.41724 17.751C5.41724 22.1348 8.34221 17.4272 12.4492 15.0966C11.8697 14.3305 11.5699 13.4038 11.5959 12.4592C11.622 11.5146 11.9724 10.6043 12.5933 9.86826C12.3953 10.3202 12.2936 10.8051 12.2939 11.2949C12.2939 12.2987 12.7117 13.2614 13.4552 13.9712C14.1988 14.6809 15.2074 15.0797 16.2589 15.0797C17.3105 15.0797 18.319 14.6809 19.0626 13.9712C19.8062 13.2614 20.224 12.2987 20.224 11.2949C20.2243 10.8051 20.1226 10.3202 19.9246 9.86826C20.5455 10.6043 20.8959 11.5146 20.922 12.4592C20.948 13.4038 20.6482 14.3305 20.0687 15.0966C24.1779 17.425 27.1007 22.1348 27.1007 17.751C27.1007 12.1035 22.2464 0 16.2589 0Z" fill="white"/>
    </symbol>

</svg>